<svg width="456" height="584" viewBox="0 0 456 584" fill="none" xmlns="http://www.w3.org/2000/svg">
<path d="M322.82 426.165H439.276C439.276 426.165 433.482 417.28 427.104 416.166C427.104 416.166 414.729 372.586 393.895 372.281C374.58 371.989 366.829 399.071 366.829 399.071C366.829 399.071 357.829 386.922 349.324 392.439C340.82 397.957 335.926 413.898 335.926 413.898C335.926 413.898 326.308 420.052 322.82 426.165Z" fill="#EBEBEB"/>
<path d="M147.564 256.793H0.295898C0.295898 256.793 0.295898 245.706 20.5451 243.531C20.5451 243.531 39.0619 195.044 67.3433 201.569C84.9601 205.548 93.9597 234.128 93.9597 234.128C93.9597 234.128 107.268 211.688 117.91 216.038C128.552 220.388 134.874 244.26 134.874 244.26C134.874 244.26 145.899 250.533 147.564 256.793Z" fill="#EBEBEB"/>
<path d="M432.897 219.34H332.776C332.776 219.34 342.226 208.969 346.422 208.969C350.618 208.969 362.88 174.156 378.54 175.641C394.199 177.126 402.512 203.041 402.512 203.041C402.512 203.041 421.547 196.012 432.897 219.34Z" fill="#EBEBEB"/>
<path d="M210.37 361.432H124.728C124.728 361.432 128.991 354.894 133.727 354.072C133.727 354.072 142.862 322.03 158.139 321.804C172.347 321.592 178.05 341.512 178.05 341.512C178.05 341.512 184.631 332.573 190.92 336.658C197.208 340.743 200.775 352.44 200.775 352.44C200.775 352.44 207.794 356.936 210.37 361.432Z" fill="#EBEBEB"/>
<path d="M135.933 131.531H252.411C252.411 131.531 246.628 122.645 240.239 121.531C240.239 121.531 227.864 77.9509 207.041 77.6459C187.714 77.3541 179.963 104.436 179.963 104.436C179.963 104.436 170.964 92.2875 162.459 97.8046C153.954 103.322 149.072 119.263 149.072 119.263C149.072 119.263 139.42 125.417 135.933 131.531Z" fill="#EBEBEB"/>
<path d="M345.893 61.7432C345.893 81.7958 333.282 103.055 322.831 120.097C318.635 126.954 314.867 133.293 312.122 137.988C309.208 142.948 307.408 146.092 307.408 146.092H287.733C287.733 146.092 285.933 142.948 283.019 137.988C280.274 133.293 276.506 126.954 272.31 120.097C261.859 103.029 249.248 81.7693 249.248 61.7432C249.248 28.9852 269.925 7.6329 292.874 5.04675H293.11C294.584 4.90087 296.08 4.82129 297.61 4.82129C299.14 4.82129 300.602 4.90087 302.11 5.04675H302.346C325.216 7.6329 345.893 28.9852 345.893 61.7432Z" fill="#EBEBEB"/>
<path d="M300.951 138.015C300.58 140.668 300.186 143.32 299.826 146.119H295.428C295.012 143.36 294.618 140.668 294.247 138.015C278.149 23.6943 297.622 4.78223 297.622 4.78223C297.622 4.78223 317.049 23.6943 300.951 138.015Z" fill="white"/>
<path d="M290.31 138.015C292.121 143.107 293.336 146.118 293.336 146.118H290.76C290.76 146.118 289.106 143.094 286.451 138.015C284.539 134.314 282.097 129.527 279.386 123.983C270.533 105.814 259.137 83.2943 261.286 58.1622C264.211 23.3619 289.173 7.24814 292.875 5.1129L293.336 4.84766L293.111 5.07312C290.996 7.35424 274.346 26.4254 274.346 61.6236C274.346 89.6337 284.944 122.962 290.31 138.015Z" fill="white"/>
<path d="M315.756 123.984C313.045 129.528 310.604 134.315 308.691 138.015C306.036 143.095 304.383 146.119 304.383 146.119H301.807C301.807 146.119 303.022 143.108 304.833 138.015C310.199 122.963 320.796 89.6345 320.796 61.5582C320.796 26.36 304.147 7.2888 302.032 5.00768L301.807 4.78223L302.268 5.04747C305.969 7.24902 330.932 23.3627 333.857 58.163C335.972 83.2951 324.61 105.815 315.756 123.984Z" fill="white"/>
<path d="M312.122 138.016C309.209 142.976 307.409 146.119 307.409 146.119H287.733C287.733 146.119 285.933 142.976 283.02 138.016H312.122Z" fill="#DBDBDB"/>
<path d="M268.195 91.4811L267.118 91.8662L286.992 169.078L288.068 168.693L268.195 91.4811Z" fill="#DBDBDB"/>
<path d="M288.094 91.6461L286.972 91.7354L291.391 168.945L292.513 168.856L288.094 91.6461Z" fill="#DBDBDB"/>
<path d="M326.939 91.4903L307.089 168.71L308.165 169.095L328.016 91.8749L326.939 91.4903Z" fill="#DBDBDB"/>
<path d="M307.035 91.6434L302.616 168.854L303.739 168.943L308.157 91.7327L307.035 91.6434Z" fill="#DBDBDB"/>
<path d="M339.977 91.1201H255.155V93.7726H339.977V91.1201Z" fill="#DBDBDB"/>
<path d="M308.591 169.208L308.118 175.905L307.061 190.985H288.083L287.025 175.905L286.553 169.208H308.591Z" fill="#EBEBEB"/>
<path d="M308.591 169.208L308.118 175.905H287.025L286.553 169.208H308.591Z" fill="#DBDBDB"/>
<path d="M309.693 167.312H285.45V171.106H309.693V167.312Z" fill="#EBEBEB"/>
<path d="M10.5322 492.237L62.8427 491.919L115.164 491.8L219.785 491.574L324.406 491.8L376.728 491.919L429.038 492.237L376.728 492.556L324.406 492.675L219.785 492.9L115.164 492.675L62.8427 492.556L10.5322 492.237Z" fill="#263238"/>
<path d="M219.787 584.001C327.911 584.001 415.563 572.429 415.563 558.153C415.563 543.877 327.911 532.305 219.787 532.305C111.663 532.305 24.0107 543.877 24.0107 558.153C24.0107 572.429 111.663 584.001 219.787 584.001Z" fill="#EBEBEB"/>
<path d="M92.0374 37.6336C91.6661 37.3153 73.4419 33.2173 61.4948 50.896C50.504 67.1423 50.6727 91.5184 52.5964 91.545C54.9476 91.545 58.6712 78.7999 69.0095 69.3438C72.6769 65.9885 79.6966 66.1742 79.6966 66.1742L92.0374 37.6336Z" fill="#08C3B8"/>
<path d="M126.877 67.0625C127.248 67.3675 136.394 86.399 126.044 105.417C116.527 122.91 96.8856 130.616 96.2556 128.414C95.4906 125.762 104.535 117.539 108.81 102.95C110.329 97.778 107.921 90.0063 107.921 90.0063L126.877 67.0625Z" fill="#08C3B8"/>
<path d="M95.5135 102.194L74.0381 84.0508C74.0381 84.0508 74.9943 57.2344 89.405 36.4656C96.637 26.4068 105.278 17.884 114.953 11.2672C127.215 2.68648 138.363 -1.31875 140.827 0.789961C143.29 2.89867 143.684 16.7048 140.748 33.0837C138.547 45.9946 134.495 58.3687 128.767 69.6745C116.741 92.4989 95.5135 102.194 95.5135 102.194Z" fill="#EBEBEB"/>
<path d="M93.8783 100.792L75.6895 85.4287L71.7322 91.9404L89.921 107.304L93.8783 100.792Z" fill="#08C3B8"/>
<path d="M122.185 57.9638C120.682 60.4379 118.591 62.331 116.175 63.4036C113.759 64.4761 111.128 64.6799 108.614 63.9891C106.1 63.2984 103.816 61.7442 102.052 59.5231C100.287 57.302 99.1208 54.5138 98.7005 51.5112C98.2802 48.5086 98.6247 45.4265 99.6905 42.6547C100.756 39.883 102.495 37.5462 104.688 35.9398C106.88 34.3335 109.428 33.5298 112.008 33.6305C114.587 33.7311 117.084 34.7316 119.182 36.5053C120.575 37.6811 121.758 39.1691 122.663 40.8842C123.568 42.5993 124.177 44.5078 124.456 46.5007C124.735 48.4935 124.678 50.5317 124.288 52.4986C123.899 54.4655 123.184 56.3226 122.185 57.9638Z" fill="#08C3B8"/>
<path d="M111.59 59.6745C116.585 59.6745 120.634 54.9005 120.634 49.0115C120.634 43.1226 116.585 38.3486 111.59 38.3486C106.594 38.3486 102.545 43.1226 102.545 49.0115C102.545 54.9005 106.594 59.6745 111.59 59.6745Z" fill="#A6A6A6"/>
<path d="M140.781 33.1492L114.907 11.3326C127.169 2.7519 138.318 -1.25332 140.781 0.855391C143.245 2.9641 143.717 16.7039 140.781 33.1492Z" fill="#08C3B8"/>
<path d="M120.363 11.8245C120.289 11.9449 120.196 12.0471 120.089 12.125C119.982 12.2029 119.862 12.2551 119.738 12.2785C119.613 12.3019 119.486 12.2961 119.364 12.2614C119.241 12.2268 119.126 12.1639 119.024 12.0764C118.818 11.9006 118.68 11.6355 118.64 11.3395C118.6 11.0436 118.661 10.7409 118.81 10.4982C118.959 10.2555 119.184 10.0926 119.435 10.0454C119.686 9.99813 119.943 10.0704 120.149 10.2463C120.252 10.3319 120.34 10.4412 120.407 10.5676C120.474 10.694 120.519 10.8349 120.539 10.9821C120.559 11.1293 120.554 11.2796 120.523 11.4243C120.493 11.569 120.438 11.7051 120.363 11.8245Z" fill="#EBEBEB"/>
<path d="M125.291 16.0149C125.217 16.1354 125.124 16.2375 125.016 16.3154C124.909 16.3933 124.79 16.4455 124.666 16.4689C124.541 16.4923 124.414 16.4865 124.292 16.4519C124.169 16.4172 124.054 16.3543 123.952 16.2669C123.85 16.1798 123.763 16.0699 123.698 15.9435C123.632 15.817 123.587 15.6765 123.568 15.53C123.548 15.3834 123.553 15.2337 123.582 15.0893C123.611 14.945 123.664 14.8088 123.738 14.6887C123.812 14.5685 123.905 14.4666 124.012 14.3889C124.12 14.3112 124.239 14.2592 124.363 14.2358C124.487 14.2124 124.614 14.2181 124.737 14.2526C124.859 14.287 124.975 14.3496 125.077 14.4367C125.18 14.5224 125.268 14.6316 125.335 14.758C125.402 14.8844 125.447 15.0254 125.467 15.1725C125.487 15.3197 125.481 15.4701 125.451 15.6147C125.421 15.7594 125.366 15.8955 125.291 16.0149Z" fill="#EBEBEB"/>
<path d="M130.287 20.218C130.213 20.3385 130.12 20.4406 130.013 20.5185C129.905 20.5965 129.786 20.6486 129.662 20.672C129.537 20.6954 129.41 20.6897 129.288 20.655C129.165 20.6203 129.05 20.5575 128.948 20.47C128.846 20.3829 128.76 20.273 128.694 20.1466C128.628 20.0202 128.584 19.8796 128.564 19.7331C128.544 19.5865 128.549 19.4368 128.578 19.2925C128.607 19.1481 128.66 19.012 128.734 18.8918C128.808 18.7716 128.901 18.6698 129.008 18.5921C129.116 18.5144 129.235 18.4623 129.359 18.4389C129.484 18.4155 129.611 18.4212 129.733 18.4557C129.855 18.4902 129.971 18.5527 130.073 18.6398C130.175 18.7267 130.262 18.8364 130.328 18.9629C130.394 19.0893 130.438 19.2299 130.458 19.3765C130.478 19.5232 130.473 19.673 130.443 19.8174C130.414 19.9619 130.361 20.098 130.287 20.218Z" fill="#EBEBEB"/>
<path d="M135.247 24.3977C135.174 24.5182 135.081 24.6203 134.973 24.6982C134.866 24.7761 134.747 24.8283 134.623 24.8517C134.498 24.8751 134.371 24.8693 134.249 24.8347C134.126 24.8 134.011 24.7371 133.909 24.6497C133.807 24.5626 133.72 24.4527 133.655 24.3263C133.589 24.1998 133.545 24.0593 133.525 23.9128C133.505 23.7662 133.51 23.6165 133.539 23.4721C133.568 23.3278 133.621 23.1917 133.695 23.0715C133.769 22.9513 133.862 22.8495 133.969 22.7718C134.077 22.6941 134.196 22.642 134.32 22.6186C134.444 22.5952 134.571 22.6009 134.694 22.6354C134.816 22.6699 134.932 22.7324 135.034 22.8195C135.136 22.9063 135.223 23.0161 135.289 23.1426C135.355 23.269 135.399 23.4096 135.419 23.5562C135.439 23.7029 135.434 23.8527 135.404 23.9971C135.375 24.1415 135.322 24.2777 135.247 24.3977Z" fill="#EBEBEB"/>
<path d="M140.208 28.5884C140.059 28.8309 139.836 28.9946 139.585 29.0442C139.335 29.0939 139.078 29.0254 138.87 28.8536C138.663 28.6756 138.524 28.4094 138.482 28.1119C138.44 27.8145 138.498 27.5094 138.645 27.2621C138.796 27.0179 139.022 26.8542 139.276 26.807C139.529 26.7598 139.787 26.8328 139.995 27.0101C140.097 27.097 140.183 27.2068 140.25 27.3332C140.316 27.4596 140.36 27.6002 140.38 27.7469C140.4 27.8935 140.395 28.0434 140.365 28.1878C140.336 28.3322 140.283 28.4683 140.208 28.5884Z" fill="#EBEBEB"/>
<path d="M127.732 261.844C127.732 260.942 127.653 260.04 127.653 259.191H128.497C128.497 260.04 128.497 260.915 128.576 261.844H127.732Z" fill="#263238"/>
<path d="M208.842 333.369H207.503V332.374C208.999 332.374 210.495 332.374 212.003 332.374V333.369C210.979 333.342 209.91 333.369 208.842 333.369ZM201.822 333.037C200.314 332.891 198.785 332.692 197.322 332.453L197.435 331.472C198.92 331.711 200.427 331.896 201.934 332.042L201.822 333.037ZM217.74 332.825L217.65 331.843C219.135 331.658 220.642 331.432 222.15 331.167L222.274 332.148C220.755 332.414 219.236 332.652 217.74 332.825ZM191.664 331.339C190.201 330.995 188.705 330.584 187.231 330.146L187.434 329.178C188.896 329.615 190.381 330.026 191.832 330.371L191.664 331.339ZM227.831 330.915L227.651 329.934C229.102 329.562 230.576 329.138 232.038 328.607L232.252 329.576C230.79 330.093 229.305 330.557 227.842 330.915H227.831ZM181.708 328.263C180.268 327.719 178.828 327.109 177.41 326.472L177.714 325.544C179.109 326.18 180.538 326.777 181.966 327.321L181.708 328.263ZM237.64 327.666L237.371 326.724C238.788 326.167 240.217 325.557 241.612 324.907L241.927 325.836C240.577 326.485 239.137 327.096 237.708 327.666H237.64ZM172.236 323.926C170.863 323.196 169.491 322.401 168.141 321.578L168.534 320.69C169.862 321.512 171.234 322.295 172.584 323.024L172.236 323.926ZM247.225 323.263L246.876 322.361C248.226 321.618 249.576 320.822 250.881 319.974L251.286 320.849C249.959 321.645 248.598 322.454 247.225 323.21V323.263ZM163.168 318.303C161.875 317.374 160.581 316.406 159.332 315.425L159.794 314.589C161.031 315.571 162.313 316.539 163.607 317.454L163.168 318.303ZM256.169 317.414L255.707 316.578C256.933 315.624 258.182 314.602 259.397 313.541L259.903 314.337C258.666 315.358 257.417 316.393 256.169 317.361V317.414ZM154.697 311.512C153.505 310.425 152.313 309.284 151.154 308.13L151.705 307.374C152.83 308.528 154.023 309.642 155.215 310.717L154.697 311.512ZM264.324 310.186L263.773 309.43C264.898 308.303 266.023 307.096 267.148 305.863L267.733 306.579C266.586 307.733 265.449 308.953 264.324 310.093V310.186ZM146.935 303.661C145.81 302.414 144.775 301.115 143.763 299.815L144.382 299.139C145.383 300.465 146.452 301.711 147.532 302.945L146.935 303.661ZM271.67 301.791L271.052 301.115C272.042 299.788 273.043 298.462 274.033 297.136L274.674 297.786C273.673 299.072 272.66 300.425 271.67 301.698V301.791ZM140.051 294.722C139.106 293.303 138.183 291.858 137.328 290.412L138.014 289.842C138.858 291.274 139.769 292.706 140.714 294.099L140.051 294.722ZM278.285 292.454L277.621 291.844C278.51 290.518 279.41 289.033 280.299 287.561L280.985 288.131C280.04 289.616 279.129 291.075 278.285 292.454ZM134.291 284.656C133.515 283.078 132.795 281.473 132.153 279.908L132.907 279.471C133.537 281.022 134.246 282.6 135.022 284.165L134.291 284.656ZM284.18 282.614L283.471 282.057C284.292 280.585 285.114 279.086 285.912 277.574L286.632 278.091C285.777 279.616 284.956 281.128 284.135 282.614H284.18ZM129.96 273.688C129.452 271.992 129.02 270.265 128.666 268.516L129.487 268.277C129.834 269.994 130.254 271.69 130.747 273.357L129.96 273.688ZM289.557 272.362L288.837 271.858C289.591 270.333 290.345 268.794 291.087 267.229L291.818 267.72C291.031 269.285 290.277 270.877 289.535 272.362H289.557ZM294.563 261.858L293.821 261.381C294.53 259.829 295.238 258.251 295.947 256.673L296.689 257.137L294.563 261.858ZM299.299 251.248L298.546 250.797L300.604 246.036L301.358 246.474C300.646 248.048 299.944 249.621 299.254 251.195L299.299 251.248ZM303.9 240.506L303.147 240.055L305.172 235.28L305.925 235.718L303.9 240.506ZM308.468 229.75L307.714 229.299L309.75 224.525L310.504 224.976L308.468 229.75ZM313.08 219.021L312.338 218.57C313.024 216.992 313.721 215.413 314.43 213.822L315.184 214.286C314.43 215.811 313.733 217.39 313.035 218.968L313.08 219.021ZM317.85 208.411L317.107 207.934C317.827 206.382 318.547 204.817 319.29 203.265L320.021 203.756C319.245 205.241 318.514 206.793 317.805 208.345L317.85 208.411ZM322.811 197.96L322.08 197.47C322.845 195.931 323.61 194.393 324.386 192.868L325.106 193.385C324.296 194.861 323.516 196.378 322.766 197.934L322.811 197.96ZM328.076 187.722L327.356 187.191C328.166 185.693 328.987 184.194 329.819 182.709L330.517 183.266C329.651 184.671 328.829 186.17 328.031 187.655L328.076 187.722ZM333.701 177.749L333.014 177.178C333.88 175.719 334.758 174.261 335.658 172.828L336.333 173.412C335.418 174.8 334.525 176.223 333.656 177.682L333.701 177.749ZM339.753 168.107L339.033 167.43C339.967 166.025 340.923 164.645 341.89 163.266L342.543 163.903C341.586 165.269 340.641 166.648 339.708 168.04L339.753 168.107ZM346.278 158.916L345.648 158.253C346.652 156.927 347.676 155.6 348.719 154.274L349.326 154.951C348.246 156.224 347.234 157.523 346.232 158.85L346.278 158.916ZM353.286 150.242L352.701 149.54C353.826 148.293 354.883 147.059 355.997 145.853L356.571 146.582C355.412 147.723 354.31 148.943 353.241 150.189L353.286 150.242ZM360.801 142.192L360.261 141.436C361.386 140.282 362.601 139.155 363.782 138.054L364.299 138.837C363.084 139.858 361.903 140.985 360.756 142.126L360.801 142.192ZM368.81 134.832L368.315 134.023C369.542 132.988 370.802 131.954 372.05 130.972L372.523 131.795C371.229 132.71 369.98 133.731 368.765 134.765L368.81 134.832ZM377.281 128.2L376.831 127.352C378.125 126.437 379.452 125.521 380.757 124.699L381.174 125.575C379.824 126.317 378.519 127.232 377.281 128.147V128.2Z" fill="#263238"/>
<path d="M386.281 122.192L385.898 121.303C386.562 120.906 387.237 120.508 387.923 120.123L388.295 121.012L386.281 122.192Z" fill="#263238"/>
<path d="M383.21 104.329L375.257 130.098L391.962 114.713L455.815 87.4062L383.21 104.329Z" fill="#08C3B8"/>
<path opacity="0.2" d="M383.21 104.329L375.257 130.098L391.962 114.713L455.815 87.4062L383.21 104.329Z" fill="#222221"/>
<path d="M394.1 120.721L375.257 130.097L391.962 114.713L394.1 120.721Z" fill="#263238"/>
<path d="M391.962 114.713L455.814 87.4062L403.436 147.67L391.962 114.713Z" fill="#08C3B8"/>
<path d="M383.209 104.328L356.671 84.1299L455.813 87.4057L383.209 104.328Z" fill="#08C3B8"/>
<path d="M238.832 237.894C238.832 237.894 231.959 310.2 227.245 357.135C226.39 365.61 225.614 373.262 224.995 379.495C224.106 387.93 223.443 393.805 223.139 395.715C222.869 397.346 222.959 403.845 223.015 412.956C223.015 418.089 223.015 424.057 223.015 430.462C222.768 455.197 222.824 487.981 222.88 508.538C222.88 520.248 222.543 527.994 222.543 527.994H175.025C175.025 527.994 174.89 520.461 174.777 508.538C174.473 476.204 174.293 411.63 177.162 377.48C181.144 330.067 193.913 237.894 193.913 237.894H238.832Z" fill="#EB9481"/>
<path d="M141.523 572.874C144.099 573.882 217.626 573.63 220.427 571.548C221.485 570.765 222.081 558.126 222.43 542.848C222.505 539.541 222.565 536.151 222.61 532.676C222.666 528.578 222.711 524.427 222.733 520.395C222.823 502.292 222.61 486.351 222.61 486.351H174.788V520.395V532.676L175.035 542.848C175.035 542.848 146.911 557.795 144.065 560.487C141.219 563.179 138.958 571.932 141.523 572.874Z" fill="#EB9481"/>
<path d="M141.523 572.873C144.099 573.881 217.626 573.629 220.427 571.547C221.485 570.765 222.081 558.126 222.43 542.848C222.505 539.541 222.565 536.15 222.61 532.675C222.666 528.577 222.711 524.426 222.733 520.395H174.788V532.675L175.035 542.848C175.035 542.848 146.911 557.794 144.065 560.486C141.219 563.179 138.958 571.932 141.523 572.873Z" fill="white"/>
<path d="M141.298 573.006C142.974 573.656 216.242 575.088 220.641 571.68C221.923 570.672 222.553 552.158 222.891 532.596H174.788L175.035 542.821C175.035 542.821 146.765 557.847 143.885 560.553C141.005 563.258 138.722 571.932 141.298 573.006Z" fill="#08C3B8"/>
<path d="M142.356 569.519C154.73 569.108 204.757 568.869 217.042 569.585C217.143 569.585 217.143 569.678 217.042 569.678C204.757 570.394 154.742 570.156 142.356 569.758C142.086 569.744 142.086 569.519 142.356 569.519Z" fill="#263238"/>
<path d="M173.236 539.559C178.107 538.458 184.069 539.333 187.86 543.405C187.995 543.564 187.804 543.802 187.646 543.749C182.983 541.997 178.175 540.832 173.303 540.275C173.223 540.285 173.142 540.258 173.079 540.198C173.015 540.138 172.975 540.051 172.966 539.956C172.957 539.861 172.98 539.766 173.031 539.692C173.081 539.617 173.155 539.569 173.236 539.559Z" fill="#263238"/>
<path d="M169.713 542.065C174.595 540.978 180.557 541.84 184.337 545.925C184.483 546.084 184.337 546.322 184.135 546.269C179.456 544.492 174.628 543.314 169.735 542.755C169.676 542.73 169.624 542.685 169.587 542.625C169.549 542.565 169.528 542.493 169.526 542.419C169.523 542.345 169.54 542.271 169.573 542.208C169.607 542.145 169.655 542.095 169.713 542.065Z" fill="#263238"/>
<path d="M166.204 544.585C171.076 543.484 177.049 544.359 180.829 548.431C180.975 548.59 180.773 548.829 180.615 548.776C175.952 547.022 171.144 545.857 166.272 545.301C166.191 545.312 166.111 545.284 166.047 545.224C165.984 545.165 165.943 545.078 165.934 544.983C165.926 544.888 165.949 544.792 166 544.718C166.05 544.643 166.124 544.595 166.204 544.585Z" fill="#263238"/>
<path d="M162.683 547.092C167.565 546.004 173.528 546.866 177.307 550.951C177.454 551.11 177.307 551.349 177.105 551.296C172.439 549.536 167.627 548.371 162.751 547.821C162.675 547.817 162.604 547.781 162.549 547.721C162.495 547.66 162.46 547.578 162.452 547.49C162.444 547.402 162.463 547.314 162.505 547.241C162.547 547.168 162.611 547.115 162.683 547.092Z" fill="#263238"/>
<path d="M166.394 534.466C169.848 537.622 174.348 538.895 178.375 540.646C178.468 540.672 178.564 540.673 178.657 540.649C178.75 540.624 178.837 540.575 178.911 540.504C178.985 540.434 179.044 540.344 179.084 540.242C179.124 540.14 179.143 540.029 179.14 539.916C179.16 539.916 179.18 539.91 179.197 539.898C179.215 539.887 179.229 539.871 179.24 539.851C179.251 539.832 179.258 539.81 179.26 539.786C179.263 539.763 179.26 539.739 179.253 539.717C177.758 534.631 175.16 530.095 171.716 526.561C169.668 524.559 166.091 523.166 164.19 526.283C162.288 529.399 164.381 532.635 166.394 534.466ZM165.146 529.85C164.268 523.537 170.017 526.84 171.479 528.392C172.405 529.412 173.269 530.506 174.067 531.667C175.675 534.095 177.177 536.618 178.567 539.227C176.632 538.232 174.64 537.436 172.683 536.574C170.377 535.434 165.629 533.325 165.146 529.85Z" fill="#263238"/>
<path d="M195.52 530.898C194.328 527.317 190.57 527.608 188.174 528.948C184.075 531.346 180.584 534.973 178.049 539.465C178.038 539.484 178.03 539.506 178.028 539.529C178.025 539.553 178.027 539.576 178.033 539.598C178.04 539.621 178.051 539.64 178.066 539.656C178.08 539.673 178.098 539.684 178.117 539.69C178.038 540.128 178.263 540.672 178.702 540.619C182.977 540.115 187.6 540.208 191.616 538.165C193.99 536.985 196.645 534.279 195.52 530.898ZM185.08 538.298C182.988 538.603 180.896 538.789 178.803 539.186C180.717 537.072 182.722 535.076 184.81 533.205C185.832 532.312 186.903 531.501 188.017 530.778C189.749 529.704 196.026 528.219 193.844 534.067C192.64 537.29 187.589 537.927 185.08 538.298Z" fill="#263238"/>
<path d="M238.832 237.894C238.832 237.894 231.958 310.2 227.244 357.135C226.39 365.61 225.613 373.262 224.995 379.495C224.106 387.93 223.442 393.805 223.138 395.715C222.868 397.346 222.958 403.845 223.015 412.956C223.015 418.089 223.015 424.057 223.015 430.462C222.767 455.197 222.823 487.981 222.88 508.538H174.788C174.484 476.204 174.304 411.63 177.173 377.479C181.144 330.067 193.912 237.894 193.912 237.894H238.832Z" fill="#455A64"/>
<path d="M222.97 412.983C222.914 403.845 222.824 397.346 223.094 395.742C224.894 384.561 238.843 237.92 238.843 237.92H200.438L222.97 412.983Z" fill="#263238"/>
<path d="M389.081 395.251C389.081 395.251 387.472 396.021 384.581 397.32C382.061 398.474 378.551 399.973 374.287 401.843L372.623 402.532L372.319 402.665L371.273 403.103C342.024 415.331 284.516 436.444 258.215 425.728C231.913 415.012 194.643 237.31 193.912 237.894H257.663C257.663 237.894 269.52 273.954 259.407 296.646C258.473 298.742 282.052 372.772 296.317 370.743C307.454 369.151 338.514 355.411 358.111 348.303L361.305 347.149L364.872 345.823H364.928L371.003 343.621L375.097 342.136L389.081 395.251Z" fill="#EB9481"/>
<path d="M437.893 418.965C437.949 415.769 416.069 333.012 413.538 330.479C412.593 329.511 402.175 332.574 389.7 336.685C387 337.561 384.176 338.357 381.397 339.471C377.91 340.876 344.566 353.688 344.566 353.688L358.28 408.302L384.671 397.692L395.493 393.355L403.66 390.093C403.66 390.093 424.067 417.347 427.082 419.774C430.097 422.201 437.837 422.148 437.893 418.965Z" fill="#EB9481"/>
<path d="M437.892 418.965C437.948 415.769 416.068 333.012 413.537 330.479C412.592 329.511 402.174 332.574 389.699 336.685C386.999 337.561 384.175 338.357 381.397 339.471C377.909 340.876 374.343 342.057 371.002 343.449C375.164 359.616 381.07 383.157 384.67 397.639L395.492 393.302L403.659 390.04C403.659 390.04 424.066 417.294 427.081 419.721C430.096 422.148 437.836 422.148 437.892 418.965Z" fill="white"/>
<path d="M438.027 419.176C438.083 415.967 416.079 332.746 413.537 330.199C412.412 329.019 397.157 333.806 381.217 339.244L395.391 393.421L403.603 390.132C403.603 390.132 424.123 417.558 427.16 419.998C430.197 422.439 438.027 422.386 438.027 419.176Z" fill="#08C3B8"/>
<path d="M434.922 419.031C430.94 405.185 416 348.9 412.963 334.868C412.963 334.749 412.963 334.722 413.042 334.868C417.238 348.489 431.783 404.907 435.113 418.978C435.181 419.256 435.001 419.323 434.922 419.031Z" fill="#263238"/>
<path d="M401.533 393.063C399.215 387.904 398.158 380.915 400.408 375.504C400.487 375.292 400.745 375.437 400.745 375.636C400.684 381.427 401.16 387.208 402.163 392.877C402.184 392.976 402.171 393.08 402.126 393.167C402.082 393.254 402.01 393.317 401.927 393.342C401.843 393.366 401.755 393.351 401.681 393.298C401.607 393.246 401.554 393.162 401.533 393.063Z" fill="#263238"/>
<path d="M404.605 396.286C402.288 391.113 401.23 384.137 403.48 378.726C403.57 378.514 403.818 378.66 403.818 378.859C403.763 384.649 404.239 390.43 405.235 396.1C405.256 396.199 405.243 396.303 405.198 396.39C405.154 396.477 405.082 396.54 404.999 396.564C404.915 396.589 404.827 396.573 404.753 396.521C404.679 396.469 404.626 396.384 404.605 396.286Z" fill="#263238"/>
<path d="M407.654 399.522C405.337 394.35 404.279 387.374 406.529 381.963C406.619 381.751 406.866 381.896 406.866 382.095C406.818 387.885 407.293 393.665 408.284 399.336C408.305 399.435 408.292 399.539 408.247 399.626C408.203 399.713 408.131 399.776 408.048 399.8C407.964 399.825 407.876 399.81 407.802 399.757C407.728 399.705 407.675 399.62 407.654 399.522Z" fill="#263238"/>
<path d="M410.746 402.717C408.428 397.545 407.371 390.569 409.621 385.158C409.711 384.946 409.958 385.092 409.958 385.291C409.909 391.081 410.384 396.86 411.376 402.532C411.397 402.63 411.383 402.734 411.339 402.821C411.295 402.908 411.223 402.971 411.14 402.996C411.056 403.02 410.968 403.005 410.894 402.953C410.82 402.9 410.767 402.816 410.746 402.717Z" fill="#263238"/>
<path d="M400.758 386.499C400.67 386.403 400.564 386.335 400.448 386.3C400.332 386.266 400.211 386.266 400.095 386.3C400.082 386.283 400.066 386.269 400.049 386.26C400.031 386.251 400.013 386.246 399.993 386.246C399.974 386.246 399.955 386.251 399.938 386.26C399.92 386.269 399.905 386.283 399.892 386.3L399.543 386.605H399.476L399.341 386.724C399.168 386.875 399 387.034 398.835 387.202C397.42 388.564 396.131 390.098 394.987 391.777C394.459 392.547 393.952 393.356 393.491 394.178C392.696 395.58 392.014 397.068 391.455 398.621C390.431 401.512 390.33 405.941 393.446 407.175C396.562 408.408 398.531 405.093 399.431 402.281C400.394 398.734 400.85 395.023 400.781 391.3C400.781 389.868 400.837 388.448 400.905 387.056C400.931 386.957 400.93 386.85 400.904 386.751C400.878 386.651 400.827 386.564 400.758 386.499ZM399.386 391.804C399.386 392.706 399.285 393.594 399.228 394.456C399.037 397.414 398.733 403.395 396.056 404.96C391.196 407.811 392.175 400.358 393.007 398.263C393.562 396.914 394.194 395.611 394.897 394.363C395.089 394.005 395.291 393.661 395.494 393.316C396.72 391.26 398.092 389.337 399.431 387.401L399.622 387.109C399.622 387.109 399.622 387.202 399.622 387.242C399.617 387.33 399.617 387.419 399.622 387.507C399.498 388.952 399.42 390.385 399.352 391.817L399.386 391.804Z" fill="#263238"/>
<path d="M400.78 386.552C400.24 385.013 399.723 383.409 399.183 381.817C398.222 378.557 396.812 375.505 395.009 372.786C393.637 370.876 391.353 369.046 389.249 369.788C388.785 369.944 388.352 370.211 387.978 370.571C385.425 372.958 386.763 377.109 388.563 379.417C389.854 381.051 391.308 382.494 392.894 383.714C394.746 385.184 396.75 386.37 398.857 387.242C399.07 387.334 399.273 387.414 399.486 387.48L399.678 387.547H399.756L400.049 387.653C400.069 387.661 400.091 387.664 400.112 387.66C400.133 387.657 400.153 387.648 400.17 387.634C400.188 387.62 400.202 387.601 400.213 387.579C400.223 387.556 400.228 387.532 400.229 387.507C400.324 387.503 400.418 387.472 400.501 387.418C400.585 387.364 400.656 387.287 400.71 387.194C400.763 387.101 400.798 386.994 400.81 386.883C400.822 386.771 400.812 386.658 400.78 386.552ZM399.34 386.711C397.148 385.238 395.023 383.631 392.973 381.897L392.231 381.22C391.475 380.528 390.753 379.784 390.071 378.992C388.822 377.52 386.201 371.963 389.677 371.459C390.121 371.393 390.571 371.393 391.016 371.459C393.974 371.857 395.988 377.361 397.023 380.067C397.855 382.242 398.587 384.443 399.475 386.578C399.512 386.683 399.553 386.784 399.599 386.883L399.34 386.711Z" fill="#263238"/>
<path d="M374.288 401.843L372.623 402.532L372.319 402.665L371.273 403.103C342.024 415.331 284.516 436.444 258.215 425.728C231.913 415.012 194.643 237.31 193.912 237.894H257.663C257.663 237.894 269.52 273.954 259.407 296.646C258.473 298.742 282.052 372.772 296.317 370.743C307.454 369.151 338.514 355.411 358.111 348.303L361.306 347.149L374.288 401.843Z" fill="#455A64"/>
<path d="M192.676 168.956C192.68 169.139 192.741 169.314 192.846 169.448C192.952 169.582 193.095 169.666 193.249 169.686L195.735 169.473C197.198 161.821 198.975 155.628 198.582 157.988C198.008 161.706 197.876 165.5 198.188 169.261L203.093 168.744C203.678 155.588 205.151 145.668 205.343 148.625C205.961 160.561 206.906 164.301 207.986 168.253C219.832 166.927 235.345 165.123 246.538 163.466C247.09 156.145 247.427 148.28 247.663 148.784C249.61 152.551 250.622 158.293 251.128 162.763C254.683 162.206 257.518 161.675 259.239 161.238C259.239 161.238 259.453 155.137 259.363 153.161C259.164 148.09 258.217 143.099 256.562 138.413C254.739 133.825 252.526 129.466 249.958 125.403L249.891 125.31C248.296 122.581 246.974 119.644 245.954 116.557C245.245 114.292 244.692 111.963 244.3 109.594C242.871 100.92 238.18 93.9843 231.419 92.7509C217.605 80.1384 205.916 88.3478 203.363 100.191C203.115 101.345 202.901 102.658 202.71 104.09C201.979 109.395 201.585 116.132 201.023 121.331C200.843 123.388 200.557 125.429 200.168 127.445C197.929 137.18 191.359 143.559 192.676 168.956Z" fill="#263238"/>
<path d="M234.409 94.5805C236.667 95.5053 238.684 97.1045 240.261 99.2221C241.838 101.34 242.923 103.903 243.409 106.662C243.987 110.323 244.942 113.886 246.255 117.272C247.856 120.518 249.849 123.471 252.172 126.039C255.682 130.269 258.281 134.633 259.406 140.826C260.531 147.02 261.082 154.685 260.002 160.919C260.603 153.931 260.065 146.872 258.416 140.123C256.762 133.346 253.196 129.513 249.473 124.739C246.474 120.978 244.357 116.362 243.33 111.344C242.678 108.241 242.374 104.938 241.08 102.06C239.517 98.705 236.884 96.8483 234.331 95.2303C233.858 95.0579 234.094 94.4876 234.409 94.5805Z" fill="#263238"/>
<path d="M193.913 138.52C196.41 133.056 199.11 128.294 200.235 121.836C201.27 115.947 201.563 109.9 202.62 103.985C202.62 103.892 202.755 103.905 202.733 103.985C201.248 114.356 201.81 124.501 197.592 133.719C195.342 138.732 192.968 143.4 191.719 149.169C190.466 155.215 190.13 161.474 190.729 167.657C190.729 167.883 190.527 167.896 190.482 167.657C188.696 157.771 189.91 147.459 193.913 138.52Z" fill="#263238"/>
<path d="M213.34 166.211C203.385 177.603 166.554 198.783 153.414 193.345C144.842 189.804 120.262 161.516 115.424 153.134C109.8 143.347 127.405 124.381 132.366 128.161C138.565 132.896 157.779 157.604 163.617 161.529C166.992 163.797 190.526 154.712 213.183 149.169C221.969 147.007 219.291 159.473 213.34 166.211Z" fill="#EB9481"/>
<path d="M132.69 138.374C132.69 138.374 117.886 126.053 116.941 125.748C115.996 125.443 115.625 126.941 115.265 128.095C115.18 128.834 115.158 129.58 115.197 130.323C115.197 133.838 115.197 140.045 111.429 139.289C106.546 138.294 106.704 124.342 107.019 122.167C107.268 121.228 107.686 120.364 108.245 119.634C110.124 116.889 113.87 113.454 117.413 114.104C122.318 114.992 126.863 118.52 130.992 121.252L132.69 138.374Z" fill="#EB9481"/>
<path d="M132.691 138.374C132.691 138.374 117.887 126.053 116.942 125.748C115.997 125.443 115.626 126.941 115.266 128.095C115.181 128.834 115.159 129.58 115.198 130.323C112.712 126.53 109.979 122.366 108.246 119.634C110.125 116.889 113.871 113.454 117.414 114.104C122.319 114.992 126.864 118.52 130.993 121.252L132.691 138.374Z" fill="#263238"/>
<path d="M125.717 166.715C125.099 165.694 118.698 157.989 113.871 152.127C114.546 145.907 114.659 133.321 114.693 129.992C115.278 126.292 114.693 118.056 114.423 118.056C113.838 118.056 111.768 118.056 109.248 117.764C105.873 117.406 101.846 116.637 99.3933 114.966C98.7879 114.655 98.2665 114.154 97.8857 113.518C97.5048 112.882 97.2792 112.135 97.2334 111.358C97.2334 108.706 102.318 108.427 108.303 107.565C116.448 106.385 126.516 105.457 129.756 108.998C134.537 114.303 136.663 125.562 137.631 128.891C138.598 132.22 144.538 141.172 144.538 141.172C140.139 159.169 126.538 168.068 125.717 166.715Z" fill="#EB9481"/>
<path d="M83.8239 107.485C83.8239 107.485 94.556 111.809 105.828 115.708C117.1 119.607 139.847 133.771 139.97 134.912C140.094 136.052 114.929 127.313 104.276 121.928C93.6223 116.544 83.1377 110.297 83.1377 110.297L83.8239 107.485Z" fill="#455A64"/>
<path d="M83.632 107.247L91.1355 109.833L89.5605 114.462L82.6533 110.43L83.632 107.247Z" fill="#EBEBEB"/>
<path d="M83.6657 107.248C83.0724 106.328 82.3015 105.588 81.4172 105.09C80.5329 104.592 79.5606 104.349 78.5809 104.383C77.7603 104.452 76.9364 104.319 76.1617 103.993C75.387 103.666 74.6784 103.153 74.0811 102.486C74.0811 102.486 76.2072 110.974 82.6308 110.444L83.6657 107.248Z" fill="#455A64"/>
<path d="M73.8793 102.233C74.3293 102.233 75.5667 103.997 77.2542 104.169C78.9416 104.342 78.2441 109.912 76.6692 108.068C74.8693 105.986 73.0694 102.18 73.8793 102.233Z" fill="#08C3B8"/>
<path d="M113.871 152.192C112.217 150.216 110.732 148.492 109.697 147.338C106.476 144.001 104.463 139.335 104.072 134.301C103.555 129.858 95.2528 120.548 101.496 119.858C107.74 119.169 112.667 132.71 114.118 131.715C114.388 131.529 114.591 130.919 114.726 130.057C114.658 133.386 114.546 145.972 113.871 152.192Z" fill="#EB9481"/>
<path d="M114.907 127.644C114.907 127.471 114.805 127.498 114.783 127.644C114.783 128.254 114.434 130.999 113.906 130.999C112.961 130.999 109.687 125.508 107.966 123.493C107.865 123.386 107.73 123.493 107.831 123.625C108.315 124.129 109.766 126.53 110.137 127.1C110.846 128.214 112.803 131.768 113.984 131.768C114.772 131.848 114.963 128.347 114.907 127.644Z" fill="#263238"/>
<path d="M179.715 156.344L184.698 174.713C186.543 181.636 188.253 187.975 188.366 188.704C197.358 182.86 205.912 176.125 213.936 168.572C224.758 158.214 223.622 149.527 217.311 148.188C216.351 148.003 215.376 147.968 214.408 148.082C205.814 149.023 179.715 156.344 179.715 156.344Z" fill="#08C3B8"/>
<path d="M197.59 158.346H196.712C196.494 158.353 196.277 158.309 196.074 158.215C195.871 158.122 195.686 157.981 195.53 157.802C195.373 157.623 195.249 157.408 195.164 157.171C195.08 156.935 195.036 156.68 195.036 156.423C195.022 156.083 194.897 155.762 194.687 155.528C194.478 155.293 194.2 155.163 193.911 155.163H192.989V154.5H193.911C194.126 154.498 194.34 154.547 194.539 154.643C194.738 154.738 194.919 154.88 195.072 155.059C195.225 155.237 195.346 155.45 195.428 155.684C195.511 155.918 195.554 156.169 195.554 156.423C195.544 156.6 195.566 156.778 195.619 156.944C195.672 157.11 195.755 157.261 195.861 157.387C195.968 157.512 196.096 157.61 196.237 157.672C196.378 157.735 196.528 157.761 196.679 157.749H197.556L197.59 158.346ZM187.971 169.937C188.179 169.714 188.45 169.59 188.731 169.59C189.012 169.59 189.283 169.714 189.49 169.937C189.8 170.288 190.213 170.484 190.643 170.484C191.073 170.484 191.486 170.288 191.796 169.937L192.449 169.155L192.055 168.691L191.391 169.46C191.185 169.68 190.916 169.802 190.638 169.802C190.359 169.802 190.091 169.68 189.884 169.46C189.579 169.122 189.177 168.935 188.759 168.935C188.341 168.935 187.938 169.122 187.634 169.46L187.004 170.203L187.409 170.667L187.971 169.937Z" fill="white"/>
<path d="M184.697 174.712C186.542 181.635 188.252 187.974 188.365 188.704C197.357 182.86 205.911 176.125 213.935 168.572C224.757 158.214 223.621 149.527 217.31 148.188L184.697 174.712Z" fill="#263238"/>
<path d="M276.652 344.126H177.037L177.611 339.908L190.087 247.894L190.255 246.687L196.116 203.426C196.116 203.426 190.964 194.235 192.528 185.933C193.315 181.728 201.527 164.938 205.892 158.082C207.283 155.789 208.829 153.633 210.516 151.636C215.308 146.331 221.765 145.655 226.366 146.451C227.178 146.599 227.976 146.834 228.751 147.154C235.366 149.806 243.5 158.957 247.876 172.776C249.394 177.577 250.902 183.174 252.375 189.368C252.443 189.673 252.51 189.978 252.589 190.283C256.943 208.704 261.105 232.152 264.694 255.162C266.73 268.172 268.586 281.05 270.195 292.787L270.397 294.339C274.256 322.773 276.652 344.126 276.652 344.126Z" fill="#08C3B8"/>
<path d="M227.109 242.946H226.22C225.787 242.946 225.372 242.744 225.066 242.383C224.761 242.023 224.589 241.533 224.589 241.023C224.589 240.672 224.47 240.334 224.259 240.086C224.048 239.837 223.762 239.697 223.464 239.697H222.53V239.047H223.464C223.897 239.051 224.312 239.256 224.618 239.619C224.923 239.982 225.095 240.472 225.095 240.984C225.109 241.313 225.226 241.624 225.423 241.857C225.621 242.09 225.885 242.228 226.164 242.244H227.052L227.109 242.946ZM241.081 301.234H240.203C239.924 301.218 239.66 301.08 239.463 300.848C239.265 300.615 239.148 300.303 239.134 299.974C239.134 299.464 238.962 298.975 238.657 298.615C238.351 298.254 237.936 298.051 237.503 298.051H236.569V298.715H237.503C237.782 298.731 238.046 298.869 238.244 299.101C238.441 299.334 238.558 299.645 238.572 299.974C238.572 300.484 238.744 300.974 239.05 301.334C239.356 301.695 239.77 301.898 240.203 301.898H241.081V301.234ZM258.484 245.533H257.606C257.318 245.516 257.046 245.368 256.847 245.122C256.648 244.875 256.537 244.547 256.537 244.206C256.534 243.695 256.36 243.206 256.052 242.846C255.745 242.486 255.329 242.283 254.895 242.283H253.961V242.946H254.895C255.184 242.946 255.462 243.077 255.671 243.311C255.881 243.546 256.006 243.866 256.02 244.206C256.02 244.716 256.192 245.206 256.498 245.566C256.804 245.927 257.219 246.129 257.651 246.129H258.529L258.484 245.533ZM214.003 215.547H213.114C212.835 215.53 212.571 215.393 212.374 215.16C212.176 214.927 212.059 214.616 212.045 214.287C212.045 213.777 211.874 213.287 211.568 212.927C211.262 212.566 210.847 212.364 210.414 212.364H209.48V213.027H210.414C210.703 213.026 210.981 213.157 211.19 213.391C211.4 213.626 211.525 213.947 211.539 214.287C211.539 214.797 211.711 215.286 212.017 215.646C212.323 216.007 212.738 216.21 213.17 216.21H214.059L214.003 215.547ZM197.59 190.746H196.712C196.423 190.746 196.145 190.616 195.936 190.381C195.727 190.147 195.602 189.826 195.587 189.486C195.587 189.232 195.545 188.981 195.462 188.747C195.379 188.513 195.258 188.3 195.106 188.122C194.953 187.943 194.772 187.801 194.573 187.706C194.373 187.61 194.16 187.561 193.945 187.563H193.022V188.226H193.945C194.243 188.226 194.529 188.366 194.74 188.615C194.951 188.863 195.07 189.201 195.07 189.552C195.07 190.062 195.242 190.552 195.548 190.912C195.853 191.273 196.268 191.475 196.701 191.475H197.578L197.59 190.746ZM241.384 214.87H240.496C240.207 214.871 239.929 214.74 239.719 214.505C239.51 214.271 239.385 213.95 239.371 213.61C239.371 213.1 239.199 212.611 238.893 212.25C238.587 211.89 238.172 211.687 237.739 211.687H236.806V212.35H237.784C238.073 212.367 238.345 212.515 238.544 212.761C238.743 213.008 238.853 213.336 238.853 213.677C238.853 214.187 239.025 214.676 239.331 215.036C239.637 215.397 240.052 215.6 240.484 215.6H241.373L241.384 214.87ZM225.185 181.131H224.285C224.006 181.115 223.742 180.977 223.544 180.744C223.347 180.511 223.23 180.2 223.216 179.871C223.216 179.361 223.044 178.872 222.738 178.511C222.433 178.15 222.018 177.948 221.585 177.948H220.651V178.611H221.585C221.874 178.628 222.145 178.775 222.344 179.022C222.543 179.269 222.654 179.597 222.654 179.937C222.654 180.447 222.826 180.936 223.132 181.297C223.437 181.658 223.852 181.86 224.285 181.86H225.174L225.185 181.131ZM207.276 266.898H206.398C206.11 266.881 205.838 266.734 205.639 266.487C205.44 266.24 205.329 265.913 205.329 265.572C205.326 265.061 205.152 264.572 204.844 264.211C204.537 263.851 204.121 263.649 203.687 263.649H202.753V264.312H203.687C203.985 264.312 204.271 264.452 204.482 264.701C204.693 264.949 204.812 265.287 204.812 265.638C204.812 266.15 204.983 266.64 205.289 267.003C205.595 267.366 206.009 267.571 206.443 267.575H207.321L207.276 266.898ZM230 322.176H229.111C228.813 322.176 228.526 322.036 228.316 321.787C228.105 321.538 227.986 321.201 227.986 320.849C227.986 320.339 227.814 319.85 227.508 319.49C227.202 319.129 226.787 318.926 226.355 318.926H225.421V319.589H226.355C226.634 319.605 226.898 319.743 227.095 319.976C227.293 320.209 227.41 320.52 227.424 320.849C227.424 321.359 227.595 321.848 227.901 322.209C228.207 322.57 228.622 322.772 229.055 322.772H229.943L230 322.176ZM259.507 340.995H258.619C258.33 340.978 258.058 340.831 257.859 340.584C257.66 340.337 257.55 340.009 257.55 339.669C257.55 339.159 257.378 338.669 257.072 338.309C256.766 337.948 256.351 337.746 255.919 337.746H254.985V338.409H255.919C256.198 338.425 256.462 338.563 256.659 338.796C256.857 339.028 256.974 339.34 256.987 339.669C256.987 340.18 257.159 340.67 257.464 341.033C257.77 341.396 258.185 341.601 258.619 341.605H259.507V340.995ZM197.5 327.905H196.611C196.322 327.905 196.044 327.775 195.835 327.54C195.625 327.306 195.5 326.985 195.486 326.645C195.486 326.135 195.314 325.646 195.008 325.285C194.702 324.925 194.287 324.722 193.855 324.722H192.921V325.385H193.911C194.19 325.401 194.454 325.539 194.652 325.772C194.849 326.005 194.966 326.316 194.98 326.645C194.98 327.155 195.152 327.644 195.458 328.005C195.763 328.365 196.178 328.568 196.611 328.568H197.5V327.905ZM222.44 291.911H221.551C221.272 291.895 221.008 291.757 220.811 291.524C220.613 291.291 220.496 290.98 220.483 290.651C220.483 290.141 220.311 289.652 220.005 289.291C219.699 288.931 219.284 288.728 218.851 288.728H217.918V289.391H218.851C219.14 289.391 219.418 289.521 219.628 289.756C219.837 289.99 219.962 290.311 219.976 290.651C219.976 291.161 220.148 291.65 220.454 292.011C220.76 292.371 221.175 292.574 221.608 292.574H222.496L222.44 291.911ZM195.239 297.216H194.35C194.071 297.2 193.807 297.062 193.609 296.829C193.412 296.596 193.295 296.285 193.281 295.956C193.281 295.445 193.11 294.954 192.804 294.591C192.498 294.229 192.084 294.023 191.65 294.02H190.716V294.683H191.661C191.95 294.7 192.222 294.847 192.421 295.094C192.619 295.341 192.73 295.668 192.73 296.009C192.73 296.519 192.902 297.008 193.208 297.369C193.514 297.729 193.928 297.932 194.361 297.932H195.25L195.239 297.216ZM234.961 267.654H234.072C233.793 267.638 233.529 267.5 233.331 267.267C233.134 267.034 233.017 266.723 233.003 266.394C233.003 265.884 232.831 265.395 232.526 265.034C232.22 264.674 231.805 264.471 231.372 264.471H230.438V265.134H231.372C231.661 265.151 231.933 265.299 232.132 265.545C232.33 265.792 232.441 266.12 232.441 266.461C232.441 266.971 232.613 267.46 232.919 267.82C233.225 268.181 233.639 268.384 234.072 268.384H234.961V267.654ZM269.744 307.441H268.856C268.567 307.424 268.295 307.277 268.096 307.03C267.897 306.783 267.787 306.455 267.787 306.115C267.784 305.606 267.611 305.119 267.306 304.759C267.001 304.399 266.588 304.195 266.156 304.192H265.222V304.855H266.156C266.435 304.871 266.699 305.009 266.896 305.242C267.094 305.475 267.211 305.786 267.225 306.115C267.225 306.626 267.396 307.117 267.702 307.479C268.007 307.842 268.422 308.048 268.856 308.051H269.744V307.441ZM207.546 230.427C207.752 230.207 208.021 230.085 208.299 230.085C208.578 230.085 208.846 230.207 209.053 230.427C209.358 230.764 209.76 230.952 210.178 230.952C210.596 230.952 210.998 230.764 211.303 230.427L211.967 229.644L211.573 229.18L210.909 229.963C210.702 230.186 210.431 230.31 210.15 230.31C209.869 230.31 209.598 230.186 209.39 229.963C209.08 229.612 208.667 229.416 208.237 229.416C207.808 229.416 207.394 229.612 207.084 229.963L206.466 230.692L206.859 231.156L207.546 230.427ZM197.421 210.533C197.628 210.313 197.896 210.192 198.175 210.192C198.453 210.192 198.722 210.313 198.928 210.533C199.079 210.713 199.259 210.856 199.457 210.954C199.655 211.052 199.867 211.102 200.081 211.102C200.296 211.102 200.508 211.052 200.706 210.954C200.904 210.856 201.084 210.713 201.235 210.533L201.898 209.764L201.505 209.287L200.841 210.069C200.634 210.289 200.366 210.411 200.087 210.411C199.809 210.411 199.54 210.289 199.333 210.069C199.021 209.717 198.606 209.521 198.175 209.521C197.743 209.521 197.328 209.717 197.016 210.069L196.397 210.812L196.791 211.276L197.421 210.533ZM248.393 265.121C248.599 264.901 248.868 264.779 249.146 264.779C249.425 264.779 249.693 264.901 249.9 265.121C250.207 265.453 250.609 265.637 251.025 265.637C251.442 265.637 251.843 265.453 252.15 265.121L252.814 264.339L252.42 263.874L251.756 264.657C251.55 264.877 251.281 264.999 251.003 264.999C250.724 264.999 250.456 264.877 250.249 264.657C250.097 264.476 249.917 264.333 249.718 264.235C249.519 264.138 249.306 264.087 249.09 264.087C248.875 264.087 248.661 264.138 248.463 264.235C248.264 264.333 248.083 264.476 247.932 264.657L247.313 265.386L247.707 265.864L248.393 265.121ZM222.89 200.573C223.097 200.353 223.365 200.232 223.644 200.232C223.922 200.232 224.191 200.353 224.397 200.573C224.707 200.924 225.121 201.12 225.551 201.12C225.98 201.12 226.394 200.924 226.704 200.573L227.367 199.791L226.974 199.327L226.31 200.096C226.102 200.32 225.832 200.444 225.551 200.444C225.269 200.444 224.999 200.32 224.791 200.096C224.479 199.751 224.066 199.559 223.638 199.559C223.21 199.559 222.798 199.751 222.485 200.096L221.866 200.839L222.26 201.303L222.89 200.573ZM217.018 159.102C217.225 158.878 217.496 158.754 217.777 158.754C218.058 158.754 218.329 158.878 218.536 159.102C218.844 159.459 219.258 159.66 219.689 159.66C220.121 159.66 220.535 159.459 220.843 159.102L221.506 158.32L221.101 157.855L220.449 158.625C220.241 158.848 219.971 158.972 219.689 158.972C219.408 158.972 219.138 158.848 218.93 158.625C218.626 158.287 218.223 158.099 217.805 158.099C217.387 158.099 216.985 158.287 216.68 158.625L216.05 159.367L216.455 159.832L217.018 159.102ZM205.532 181.714C205.739 181.494 206.007 181.373 206.286 181.373C206.564 181.373 206.833 181.494 207.039 181.714C207.19 181.894 207.37 182.037 207.568 182.135C207.765 182.233 207.978 182.283 208.192 182.283C208.407 182.283 208.619 182.233 208.817 182.135C209.015 182.037 209.195 181.894 209.346 181.714L210.009 180.945L209.615 180.468L208.952 181.25C208.744 181.474 208.474 181.598 208.192 181.598C207.911 181.598 207.64 181.474 207.433 181.25C207.128 180.913 206.726 180.725 206.308 180.725C205.89 180.725 205.488 180.913 205.183 181.25L204.564 181.993L204.958 182.457L205.532 181.714ZM223.756 222.576C223.77 222.247 223.887 221.935 224.084 221.703C224.282 221.47 224.546 221.332 224.825 221.316C225.258 221.316 225.672 221.113 225.978 220.752C226.284 220.392 226.456 219.903 226.456 219.393V218.292H225.894V219.393C225.894 219.733 225.783 220.061 225.584 220.308C225.385 220.555 225.113 220.702 224.825 220.719C224.392 220.719 223.977 220.921 223.671 221.282C223.366 221.643 223.194 222.132 223.194 222.642V223.69H223.756V222.576ZM217.76 274.856C217.775 274.516 217.899 274.195 218.109 273.96C218.318 273.726 218.596 273.595 218.885 273.596C219.318 273.596 219.733 273.393 220.039 273.032C220.344 272.672 220.516 272.183 220.516 271.673V270.572H219.954V271.673C219.954 272.013 219.843 272.341 219.644 272.588C219.446 272.835 219.174 272.982 218.885 272.999C218.671 272.99 218.457 273.031 218.256 273.12C218.056 273.208 217.872 273.342 217.715 273.515C217.558 273.687 217.432 273.895 217.343 274.125C217.254 274.355 217.205 274.603 217.198 274.856V275.903H217.76V274.856ZM249.034 313.873C249.048 313.533 249.173 313.213 249.383 312.978C249.592 312.744 249.87 312.613 250.159 312.613C250.592 312.613 251.006 312.411 251.312 312.05C251.618 311.69 251.79 311.2 251.79 310.69V309.59H251.228V310.664C251.228 311.004 251.117 311.332 250.918 311.579C250.719 311.826 250.447 311.973 250.159 311.99C249.725 311.99 249.309 312.192 249.001 312.553C248.694 312.913 248.519 313.402 248.517 313.913V314.961H249.079L249.034 313.873ZM270.667 339.284C270.681 338.955 270.797 338.644 270.995 338.411C271.193 338.178 271.457 338.04 271.736 338.024C272.168 338.024 272.583 337.821 272.889 337.461C273.195 337.1 273.367 336.611 273.367 336.101V335H272.804V336.101C272.79 336.441 272.665 336.762 272.456 336.996C272.246 337.231 271.968 337.361 271.679 337.361C271.247 337.361 270.832 337.564 270.526 337.924C270.22 338.285 270.048 338.774 270.048 339.284V340.332H270.611L270.667 339.284ZM262.792 265.718C262.783 265.546 262.804 265.375 262.853 265.213C262.903 265.052 262.98 264.904 263.081 264.78C263.181 264.655 263.302 264.556 263.436 264.49C263.571 264.423 263.715 264.389 263.861 264.392C264.295 264.388 264.709 264.183 265.015 263.82C265.321 263.457 265.492 262.967 265.492 262.455V261.355H264.93V262.455C264.93 262.796 264.819 263.124 264.62 263.37C264.421 263.617 264.149 263.765 263.861 263.782C263.428 263.782 263.013 263.984 262.707 264.345C262.402 264.705 262.23 265.195 262.23 265.705V266.739H262.792V265.718ZM193.247 276.765C193.262 276.425 193.387 276.105 193.596 275.87C193.806 275.636 194.083 275.505 194.372 275.505C194.805 275.505 195.22 275.303 195.526 274.942C195.832 274.582 196.004 274.092 196.004 273.582V272.482H195.441V273.529C195.45 273.701 195.43 273.873 195.38 274.034C195.33 274.196 195.253 274.343 195.152 274.468C195.052 274.592 194.931 274.691 194.797 274.758C194.662 274.824 194.518 274.858 194.372 274.856C193.94 274.856 193.525 275.058 193.219 275.419C192.913 275.78 192.741 276.269 192.741 276.779V277.826H193.304L193.247 276.765ZM194.597 229.764C194.611 229.435 194.728 229.124 194.925 228.891C195.123 228.658 195.387 228.52 195.666 228.504C196.097 228.5 196.509 228.296 196.812 227.936C197.116 227.576 197.286 227.089 197.286 226.581V225.48H196.723V226.581C196.723 226.933 196.605 227.27 196.394 227.519C196.183 227.767 195.897 227.907 195.599 227.907C195.166 227.907 194.751 228.11 194.445 228.47C194.139 228.831 193.967 229.32 193.967 229.83V230.878H194.53L194.597 229.764ZM209.143 199.26C209.143 198.92 209.253 198.592 209.452 198.345C209.651 198.098 209.923 197.951 210.212 197.934C210.644 197.934 211.059 197.732 211.365 197.371C211.671 197.01 211.843 196.521 211.843 196.011V194.91H211.28V196.011C211.267 196.34 211.15 196.651 210.952 196.884C210.755 197.117 210.491 197.255 210.212 197.271C209.779 197.271 209.364 197.474 209.058 197.834C208.752 198.195 208.581 198.684 208.581 199.194V200.242H209.143V199.26ZM203.642 168.532C203.656 168.192 203.781 167.871 203.991 167.636C204.2 167.402 204.478 167.271 204.767 167.272C205.201 167.268 205.615 167.063 205.921 166.7C206.227 166.337 206.398 165.847 206.398 165.335V164.235H205.836V165.335C205.836 165.676 205.725 166.004 205.526 166.251C205.327 166.497 205.055 166.645 204.767 166.662C204.334 166.662 203.919 166.864 203.614 167.225C203.308 167.586 203.136 168.075 203.136 168.585V169.619H203.698L203.642 168.532ZM205.239 246.501C205.239 246.16 205.35 245.833 205.549 245.586C205.748 245.339 206.02 245.192 206.308 245.175C206.741 245.175 207.156 244.972 207.462 244.611C207.767 244.251 207.939 243.762 207.939 243.252V242.151H207.411V243.252C207.397 243.58 207.28 243.892 207.082 244.125C206.885 244.357 206.621 244.495 206.342 244.511C205.909 244.511 205.494 244.714 205.188 245.075C204.883 245.435 204.711 245.924 204.711 246.434V247.482H205.273L205.239 246.501ZM240.304 252.853C240.304 252.513 240.415 252.185 240.614 251.938C240.813 251.691 241.085 251.544 241.373 251.527C241.806 251.527 242.221 251.325 242.526 250.964C242.832 250.603 243.004 250.114 243.004 249.604V248.503H242.442V249.657C242.428 249.986 242.311 250.297 242.114 250.53C241.916 250.763 241.652 250.901 241.373 250.917C240.94 250.917 240.526 251.12 240.22 251.48C239.914 251.841 239.742 252.33 239.742 252.84V253.888H240.304V252.853ZM207.894 305.903C207.908 305.574 208.025 305.263 208.222 305.03C208.42 304.797 208.684 304.659 208.963 304.643C209.396 304.643 209.811 304.44 210.116 304.08C210.422 303.719 210.594 303.23 210.594 302.72V301.619H210.032V302.706C210.017 303.047 209.892 303.367 209.683 303.602C209.474 303.836 209.196 303.967 208.907 303.966C208.474 303.966 208.059 304.169 207.753 304.53C207.447 304.89 207.276 305.379 207.276 305.889V306.937H207.838L207.894 305.903ZM183.067 319.947C183.066 319.607 183.177 319.279 183.376 319.032C183.575 318.785 183.847 318.638 184.135 318.621C184.568 318.621 184.983 318.419 185.289 318.058C185.595 317.697 185.766 317.208 185.766 316.698V315.597H185.204V316.698C185.19 317.027 185.073 317.338 184.876 317.571C184.678 317.804 184.414 317.942 184.135 317.958C183.703 317.958 183.288 318.161 182.982 318.521C182.676 318.882 182.504 319.371 182.504 319.881V320.929H183.067V319.947ZM215.499 335.862C215.513 335.533 215.63 335.222 215.827 334.989C216.025 334.756 216.289 334.618 216.568 334.602C217 334.602 217.415 334.4 217.721 334.039C218.027 333.678 218.199 333.189 218.199 332.679V331.579H217.636V332.679C217.622 333.019 217.497 333.34 217.288 333.575C217.078 333.809 216.8 333.94 216.511 333.939C216.079 333.939 215.664 334.142 215.358 334.502C215.052 334.863 214.88 335.352 214.88 335.862V336.91H215.443L215.499 335.862ZM252.049 282.972C252.048 282.632 252.159 282.304 252.358 282.057C252.557 281.81 252.829 281.663 253.118 281.646C253.333 281.646 253.546 281.596 253.744 281.498C253.943 281.401 254.123 281.258 254.275 281.078C254.427 280.898 254.547 280.684 254.628 280.45C254.709 280.215 254.75 279.963 254.749 279.71V278.609H254.186V279.71C254.187 280.05 254.076 280.378 253.877 280.625C253.678 280.872 253.406 281.019 253.118 281.036C252.685 281.036 252.27 281.238 251.964 281.599C251.658 281.96 251.486 282.449 251.486 282.959V283.993H252.049V282.972ZM237.132 231.09C237.339 230.866 237.61 230.742 237.891 230.742C238.172 230.742 238.443 230.866 238.651 231.09C238.801 231.27 238.981 231.413 239.179 231.511C239.377 231.608 239.589 231.658 239.804 231.658C240.018 231.658 240.231 231.608 240.429 231.511C240.627 231.413 240.806 231.27 240.957 231.09L241.587 230.347L241.182 229.883L240.563 230.626C240.356 230.849 240.085 230.974 239.804 230.974C239.523 230.974 239.252 230.849 239.044 230.626C238.894 230.446 238.714 230.303 238.516 230.205C238.318 230.108 238.106 230.057 237.891 230.057C237.677 230.057 237.464 230.108 237.266 230.205C237.068 230.303 236.889 230.446 236.738 230.626L236.074 231.395L236.468 231.872L237.132 231.09ZM217.13 254.803C217.338 254.579 217.608 254.455 217.89 254.455C218.171 254.455 218.442 254.579 218.649 254.803C218.956 255.135 219.357 255.319 219.774 255.319C220.19 255.319 220.592 255.135 220.899 254.803L221.518 254.06L221.124 253.596L220.494 254.339C220.287 254.559 220.019 254.681 219.74 254.681C219.462 254.681 219.193 254.559 218.986 254.339C218.836 254.159 218.656 254.016 218.458 253.918C218.26 253.821 218.048 253.77 217.833 253.77C217.619 253.77 217.406 253.821 217.208 253.918C217.01 254.016 216.831 254.159 216.68 254.339L216.016 255.108L216.41 255.585L217.13 254.803ZM203.271 286.977C203.478 286.754 203.749 286.63 204.03 286.63C204.311 286.63 204.582 286.754 204.789 286.977C204.94 287.157 205.12 287.3 205.318 287.398C205.516 287.496 205.728 287.546 205.943 287.546C206.157 287.546 206.369 287.496 206.567 287.398C206.765 287.3 206.945 287.157 207.096 286.977L207.726 286.235L207.321 285.771L206.702 286.513C206.494 286.737 206.224 286.861 205.943 286.861C205.661 286.861 205.391 286.737 205.183 286.513C205.032 286.333 204.853 286.19 204.655 286.093C204.457 285.995 204.245 285.945 204.03 285.945C203.816 285.945 203.603 285.995 203.405 286.093C203.207 286.19 203.028 286.333 202.877 286.513L202.213 287.282L202.618 287.76L203.271 286.977ZM209.267 320.412C209.473 320.192 209.742 320.07 210.02 320.07C210.299 320.07 210.567 320.192 210.774 320.412C211.081 320.743 211.483 320.928 211.899 320.928C212.316 320.928 212.717 320.743 213.024 320.412L213.654 319.669L213.26 319.205L212.63 319.934C212.533 320.054 212.416 320.149 212.286 320.214C212.157 320.279 212.017 320.312 211.877 320.312C211.736 320.312 211.597 320.279 211.467 320.214C211.338 320.149 211.221 320.054 211.123 319.934C210.814 319.576 210.398 319.376 209.964 319.376C209.531 319.376 209.115 319.576 208.806 319.934L208.153 320.717L208.547 321.194L209.267 320.412ZM228.785 340C228.992 339.776 229.263 339.652 229.544 339.652C229.825 339.652 230.096 339.776 230.303 340C230.615 340.348 231.028 340.542 231.457 340.542C231.886 340.542 232.298 340.348 232.61 340L233.24 339.257L232.835 338.793L232.216 339.523C232.008 339.746 231.738 339.87 231.457 339.87C231.175 339.87 230.905 339.746 230.697 339.523C230.39 339.166 229.976 338.965 229.544 338.965C229.113 338.965 228.698 339.166 228.391 339.523L227.727 340.305L228.132 340.769L228.785 340ZM236.119 283.688C236.327 283.465 236.598 283.341 236.879 283.341C237.16 283.341 237.431 283.465 237.638 283.688C237.95 284.036 238.362 284.23 238.791 284.23C239.22 284.23 239.633 284.036 239.944 283.688L240.563 282.946L240.169 282.481L239.551 283.211C239.343 283.435 239.072 283.559 238.791 283.559C238.51 283.559 238.239 283.435 238.032 283.211C237.725 282.854 237.31 282.653 236.879 282.653C236.447 282.653 236.033 282.854 235.726 283.211L235.062 283.993L235.467 284.458L236.119 283.688ZM241.081 327.64C241.288 327.416 241.559 327.292 241.84 327.292C242.121 327.292 242.392 327.416 242.599 327.64C242.905 328 243.32 328.202 243.752 328.202C244.185 328.202 244.599 328 244.905 327.64L245.535 326.897L245.13 326.433L244.512 327.175C244.304 327.399 244.033 327.523 243.752 327.523C243.471 327.523 243.2 327.399 242.993 327.175C242.686 326.844 242.285 326.66 241.868 326.66C241.451 326.66 241.05 326.844 240.743 327.175L240.034 327.905L240.439 328.382L241.081 327.64ZM261.903 324.894C262.11 324.674 262.379 324.553 262.657 324.553C262.936 324.553 263.204 324.674 263.411 324.894C263.721 325.245 264.134 325.441 264.564 325.441C264.994 325.441 265.407 325.245 265.717 324.894L266.347 324.152L265.953 323.687L265.323 324.43C265.117 324.65 264.848 324.772 264.57 324.772C264.291 324.772 264.023 324.65 263.816 324.43C263.664 324.25 263.484 324.106 263.285 324.009C263.086 323.911 262.873 323.861 262.657 323.861C262.442 323.861 262.228 323.911 262.03 324.009C261.831 324.106 261.65 324.25 261.498 324.43L260.846 325.199L261.24 325.677L261.903 324.894ZM263.568 283.688C263.667 283.568 263.785 283.473 263.915 283.408C264.046 283.343 264.186 283.309 264.328 283.309C264.469 283.309 264.61 283.343 264.74 283.408C264.871 283.473 264.989 283.568 265.087 283.688C265.392 284.026 265.794 284.214 266.212 284.214C266.63 284.214 267.032 284.026 267.337 283.688L267.956 282.946L267.562 282.481L266.943 283.211C266.736 283.435 266.465 283.559 266.184 283.559C265.903 283.559 265.632 283.435 265.425 283.211C265.115 282.86 264.701 282.664 264.272 282.664C263.842 282.664 263.428 282.86 263.118 283.211L262.455 283.993L262.848 284.458L263.568 283.688ZM254.569 296.951C254.775 296.731 255.044 296.609 255.322 296.609C255.601 296.609 255.869 296.731 256.076 296.951C256.381 297.288 256.783 297.476 257.201 297.476C257.619 297.476 258.022 297.288 258.326 296.951L258.956 296.208L258.562 295.744L257.932 296.473C257.726 296.693 257.457 296.815 257.179 296.815C256.9 296.815 256.632 296.693 256.425 296.473C256.116 296.115 255.7 295.915 255.266 295.915C254.833 295.915 254.417 296.115 254.108 296.473L253.455 297.256L253.849 297.72L254.569 296.951ZM223.52 307.057C223.727 306.833 223.998 306.709 224.279 306.709C224.56 306.709 224.831 306.833 225.039 307.057C225.346 307.414 225.76 307.614 226.192 307.614C226.623 307.614 227.037 307.414 227.345 307.057L227.975 306.314L227.57 305.85L226.951 306.579C226.744 306.803 226.473 306.927 226.192 306.927C225.911 306.927 225.64 306.803 225.432 306.579C225.12 306.234 224.708 306.042 224.279 306.042C223.851 306.042 223.439 306.234 223.126 306.579L222.463 307.362L222.867 307.826L223.52 307.057ZM194.957 311.659C195.164 311.439 195.433 311.317 195.711 311.317C195.989 311.317 196.258 311.439 196.465 311.659C196.772 311.99 197.173 312.174 197.59 312.174C198.006 312.174 198.408 311.99 198.715 311.659L199.345 310.916L198.951 310.452L198.321 311.194C198.114 311.414 197.846 311.536 197.567 311.536C197.289 311.536 197.02 311.414 196.813 311.194C196.502 310.843 196.086 310.646 195.655 310.646C195.223 310.646 194.808 310.843 194.496 311.194L193.911 311.99L194.305 312.468L194.957 311.659ZM199.817 341.777C200.024 341.557 200.292 341.436 200.571 341.436C200.849 341.436 201.118 341.557 201.325 341.777C201.632 342.134 202.046 342.335 202.478 342.335C202.909 342.335 203.323 342.134 203.631 341.777L204.261 341.035L203.856 340.57L203.237 341.3C203.138 341.42 203.02 341.515 202.89 341.58C202.76 341.645 202.619 341.679 202.478 341.679C202.336 341.679 202.196 341.645 202.065 341.58C201.935 341.515 201.817 341.42 201.718 341.3C201.414 340.962 201.011 340.774 200.593 340.774C200.175 340.774 199.773 340.962 199.468 341.3L198.805 342.082L199.21 342.546L199.817 341.777ZM181.818 337.799C182.025 337.579 182.293 337.457 182.572 337.457C182.85 337.457 183.119 337.579 183.325 337.799C183.63 338.136 184.032 338.324 184.45 338.324C184.868 338.324 185.271 338.136 185.575 337.799L186.205 337.056L185.811 336.592L185.181 337.334C184.974 337.558 184.703 337.682 184.422 337.682C184.141 337.682 183.87 337.558 183.663 337.334C183.512 337.154 183.333 337.011 183.135 336.914C182.937 336.816 182.724 336.766 182.51 336.766C182.295 336.766 182.083 336.816 181.885 336.914C181.687 337.011 181.507 337.154 181.357 337.334L180.704 338.104L181.098 338.581L181.818 337.799ZM192.685 255.493C192.892 255.273 193.16 255.151 193.439 255.151C193.717 255.151 193.986 255.273 194.192 255.493C194.499 255.824 194.901 256.008 195.317 256.008C195.734 256.008 196.135 255.824 196.442 255.493L197.072 254.75L196.678 254.286L196.049 255.028C195.841 255.252 195.57 255.376 195.289 255.376C195.008 255.376 194.737 255.252 194.53 255.028C194.379 254.848 194.2 254.705 194.002 254.608C193.804 254.51 193.591 254.46 193.377 254.46C193.162 254.46 192.95 254.51 192.752 254.608C192.554 254.705 192.374 254.848 192.224 255.028L191.571 255.798L191.965 256.275L192.685 255.493Z" fill="white"/>
<path d="M276.653 344.125H260.217L228.786 147.206C235.401 149.859 243.534 159.01 247.91 172.829C249.429 177.63 250.937 183.227 252.41 189.42C252.478 189.725 252.545 190.03 252.624 190.335C256.978 208.756 261.14 232.204 264.728 255.214C266.765 268.225 268.621 281.102 270.23 292.84L270.432 294.391C274.257 322.773 276.653 344.125 276.653 344.125Z" fill="#263238"/>
<path d="M285.595 304.735C287.631 310.146 286.518 319.244 290.23 318.727C293.526 318.263 293.785 311.87 293.785 311.87C293.785 311.87 295.472 319.191 298.903 317.493C302.335 315.796 301.401 308.727 301.401 308.727C301.401 308.727 302.582 314.894 305.901 312.905C309.219 310.915 309.366 304.748 309.366 304.748C309.366 304.748 310.727 306.234 312.538 303.595C315.137 299.815 313.157 289.576 311.042 284.51C308.927 279.444 298.026 262.76 296.282 260.267L268.608 275.956C268.608 275.956 268.845 287.003 269.542 292.587C270.24 298.17 276.866 315.809 280.69 314.165C284.515 312.52 279.655 300.16 279.026 296.818C278.396 293.475 278.947 292.746 280.218 293.993C281.084 294.749 284.695 302.335 285.595 304.735Z" fill="#EB9481"/>
<path d="M293.673 311.566C293.481 302.614 292.098 298.741 287.958 291.407C287.879 291.262 288.037 291.089 288.138 291.235C292.739 297.972 295.079 302.548 294.033 311.579C294.033 311.991 293.673 311.991 293.673 311.566Z" fill="#263238"/>
<path d="M301.334 309.098C300.456 299.815 298.983 295.611 295.124 287.56C295.068 287.441 295.225 287.322 295.293 287.428C299.635 294.961 301.885 299.576 301.728 308.979C301.716 309.403 301.379 309.523 301.334 309.098Z" fill="#263238"/>
<path d="M309.286 304.656C307.891 295.757 306.44 291.049 301.85 283.794C301.833 283.76 301.827 283.719 301.832 283.68C301.837 283.641 301.854 283.605 301.879 283.578C301.904 283.552 301.936 283.536 301.97 283.534C302.004 283.533 302.037 283.545 302.064 283.569C307.351 290.439 309.208 296.301 309.511 304.576C309.534 305.146 309.376 305.213 309.286 304.656Z" fill="#263238"/>
<path d="M238.909 156.422C260.283 182.589 293.222 252.203 297.081 261.712C299.702 268.171 271.083 285.239 269.857 280.545C268.293 274.523 243.882 206.395 237.233 178.425C233.554 162.948 234.499 151.011 238.909 156.422Z" fill="#EB9481"/>
<path d="M229.214 159.619C230.643 169.168 240.283 201.01 240.283 201.01L258.035 195.984L258.35 195.904L269.656 192.721C269.656 192.721 247.978 162.894 237.82 153.704C227.661 144.513 227.661 148.863 229.214 159.619Z" fill="#08C3B8"/>
<path d="M257.921 191.302H257.032C256.6 191.302 256.185 191.099 255.879 190.739C255.573 190.378 255.401 189.889 255.401 189.379C255.401 189.027 255.283 188.69 255.072 188.441C254.861 188.192 254.574 188.053 254.276 188.053H253.342V187.39H254.276C254.709 187.39 255.124 187.592 255.43 187.953C255.735 188.314 255.907 188.803 255.907 189.313C255.921 189.642 256.038 189.953 256.235 190.186C256.433 190.419 256.697 190.556 256.976 190.573H257.865L257.921 191.302ZM243.015 174.459C243.223 174.235 243.494 174.111 243.775 174.111C244.056 174.111 244.327 174.235 244.534 174.459C244.844 174.81 245.257 175.006 245.687 175.006C246.117 175.006 246.53 174.81 246.84 174.459L247.504 173.676L247.099 173.212L246.446 173.995C246.239 174.218 245.968 174.342 245.687 174.342C245.406 174.342 245.135 174.218 244.928 173.995C244.777 173.815 244.597 173.672 244.4 173.574C244.202 173.476 243.989 173.426 243.775 173.426C243.56 173.426 243.348 173.476 243.15 173.574C242.952 173.672 242.772 173.815 242.622 173.995L241.992 174.724L242.397 175.202L243.015 174.459ZM238.054 189.405C238.068 189.077 238.185 188.765 238.382 188.532C238.58 188.3 238.844 188.162 239.123 188.146C239.556 188.146 239.97 187.943 240.276 187.582C240.582 187.222 240.754 186.733 240.754 186.223V185.122H240.192V186.223C240.192 186.563 240.081 186.891 239.882 187.138C239.683 187.385 239.411 187.532 239.123 187.549C238.69 187.549 238.275 187.751 237.97 188.112C237.664 188.473 237.492 188.962 237.492 189.472V190.52H238.054V189.405ZM231.619 165.772C231.618 165.6 231.646 165.43 231.703 165.272C231.759 165.113 231.843 164.971 231.949 164.852C232.054 164.734 232.179 164.643 232.316 164.584C232.453 164.526 232.599 164.501 232.744 164.512C233.177 164.512 233.592 164.309 233.898 163.949C234.204 163.588 234.376 163.099 234.376 162.589V161.488H233.813V162.589C233.814 162.93 233.703 163.257 233.504 163.504C233.305 163.751 233.033 163.898 232.744 163.915C232.312 163.915 231.897 164.118 231.591 164.479C231.285 164.839 231.113 165.328 231.113 165.838V166.873H231.676L231.619 165.772Z" fill="white"/>
<path d="M238.809 154.633C239.034 154.023 224.691 169.221 212.868 166.569C206.962 165.243 205.848 149.713 206.545 149.553C216.49 147.179 225.928 140.787 238.809 154.633Z" fill="#EB9481"/>
<path d="M227.548 149.05C227.109 150.376 220.461 158.333 215.173 157.166C213.452 156.768 214.858 145.588 214.858 145.588L214.802 144.726L214.015 132.79L226.614 126.013L228.414 125.138C228.414 125.138 228.414 128.427 228.414 132.512V133.095C228.414 133.334 228.414 133.546 228.414 133.771C228.414 134.382 228.414 135.005 228.414 135.628C228.414 136.252 228.414 136.557 228.414 137.061V138.533C228.332 142.058 228.043 145.572 227.548 149.05Z" fill="#EB9481"/>
<path d="M228.447 132.512C227.06 135.595 225.12 138.285 222.762 140.395C220.403 142.504 217.683 143.982 214.79 144.726L214.003 132.79L226.602 126.013L228.402 125.138C228.402 125.138 228.436 128.427 228.447 132.512Z" fill="#263238"/>
<path d="M202.912 112.022C198.783 132.485 208.705 137.711 212.451 138.745C215.826 139.7 227.526 142.419 233.421 122.578C239.315 102.738 232.566 93.9981 224.882 91.3456C217.199 88.6931 207.018 91.5578 202.912 112.022Z" fill="#EB9481"/>
<path d="M206.714 109.806C207.126 109.833 207.539 109.833 207.951 109.806C208.385 109.856 208.82 109.735 209.189 109.462C209.292 109.349 209.361 109.2 209.385 109.037C209.41 108.875 209.388 108.707 209.324 108.56C209.157 108.293 208.931 108.085 208.672 107.956C208.413 107.828 208.129 107.784 207.85 107.83C207.276 107.822 206.72 108.063 206.287 108.507C206.209 108.616 206.158 108.747 206.138 108.888C206.118 109.028 206.131 109.173 206.175 109.305C206.218 109.438 206.291 109.555 206.386 109.643C206.481 109.731 206.594 109.787 206.714 109.806Z" fill="#263238"/>
<path d="M218.841 112.618C218.457 112.468 218.081 112.291 217.716 112.087C217.277 111.975 216.881 111.695 216.591 111.292C216.524 111.145 216.502 110.977 216.526 110.813C216.551 110.65 216.621 110.501 216.726 110.39C216.956 110.203 217.224 110.091 217.503 110.068C217.782 110.045 218.061 110.11 218.312 110.257C218.861 110.458 219.324 110.9 219.605 111.491C219.663 111.626 219.686 111.779 219.672 111.93C219.659 112.081 219.609 112.224 219.528 112.342C219.448 112.461 219.34 112.55 219.218 112.598C219.097 112.647 218.966 112.654 218.841 112.618Z" fill="#263238"/>
<path d="M215.759 117.393C215.759 117.393 215.837 117.485 215.826 117.538C215.567 118.944 215.466 120.589 216.467 121.305C216.467 121.305 216.467 121.398 216.467 121.371C215.162 120.867 215.286 118.666 215.759 117.393Z" fill="#263238"/>
<path d="M217.064 116.159C219.01 116.424 218.425 120.986 216.625 120.761C214.825 120.535 215.432 115.946 217.064 116.159Z" fill="#263238"/>
<path d="M217.794 116.544C218.098 116.862 218.368 117.379 218.773 117.499C219.178 117.618 219.662 117.22 220.022 116.809C220.022 116.809 220.089 116.809 220.022 116.809C219.932 117.684 219.527 118.533 218.717 118.52C217.907 118.507 217.592 117.644 217.479 116.729C217.536 116.637 217.671 116.411 217.794 116.544Z" fill="#263238"/>
<path d="M208.311 115.429C208.311 115.429 208.209 115.429 208.209 115.535C208.074 116.967 207.714 118.572 206.578 118.85V118.93C207.928 118.943 208.378 116.795 208.311 115.429Z" fill="#263238"/>
<path d="M207.412 113.772C205.488 113.268 204.79 117.751 206.568 118.281C208.345 118.812 209.02 114.183 207.412 113.772Z" fill="#263238"/>
<path d="M206.568 113.89C206.23 114.076 205.859 114.448 205.443 114.394C205.027 114.341 204.779 113.784 204.577 113.254C204.577 113.254 204.52 113.254 204.509 113.254C204.363 114.129 204.509 115.084 205.15 115.402C205.792 115.721 206.365 115.044 206.669 114.222C206.77 114.089 206.703 113.824 206.568 113.89Z" fill="#263238"/>
<path d="M209.481 122.1C209.481 122.1 208.941 124.156 208.806 125.15C208.806 125.243 208.986 125.336 209.279 125.402C209.983 125.697 210.742 125.756 211.472 125.573C212.203 125.391 212.877 124.974 213.419 124.368C213.486 124.288 213.419 124.169 213.306 124.209C212.111 124.876 210.765 125.066 209.47 124.753C209.47 124.461 210.494 121.251 210.359 121.212C209.692 121.159 209.023 121.208 208.368 121.357C209.38 117.021 210.977 112.909 211.922 108.573C211.934 108.539 211.935 108.502 211.923 108.468C211.911 108.434 211.889 108.408 211.861 108.394C211.832 108.379 211.8 108.379 211.772 108.393C211.743 108.407 211.721 108.433 211.709 108.466C209.897 112.818 208.458 117.372 207.411 122.06C207.276 122.617 209.121 122.206 209.481 122.1Z" fill="#263238"/>
<path d="M209.447 124.66C209.767 125.592 210.282 126.413 210.943 127.047C211.32 127.373 211.771 127.558 212.237 127.578C213.25 127.578 213.52 126.583 213.553 125.642C213.57 125.144 213.536 124.645 213.452 124.156C212.197 124.825 210.794 125.002 209.447 124.66Z" fill="#263238"/>
<path d="M210.944 127.047C211.321 127.373 211.771 127.558 212.238 127.577C213.25 127.577 213.52 126.583 213.554 125.641C213.048 125.496 212.516 125.556 212.043 125.811C211.569 126.066 211.182 126.501 210.944 127.047Z" fill="#FF9BBC"/>
<path d="M233.285 122.643C231.294 122.113 226.963 114.567 228.403 103.068C228.403 103.068 227.717 113.492 228.156 115.137C228.594 116.782 225.737 110.88 226.794 101.596C224.032 103.202 221.088 104.332 218.054 104.952C214.184 105.455 211.923 104.952 211.698 104.607C211.473 104.262 217.21 103.28 218.965 101.556C218.965 101.556 208.356 105.044 203.755 104.567C203.227 104.567 204.385 91.6494 212.159 87.6044C219.932 83.5594 230.248 91.5831 232.757 95.5618C232.757 95.5618 236.188 96.888 239.158 103.705C242.128 110.522 235.4 123.227 233.285 122.643Z" fill="#263238"/>
<path d="M230.328 123.373C230.328 123.373 234.996 117.551 237.291 119.607C239.586 121.662 235.514 130.561 232.409 131.344C232.018 131.475 231.609 131.512 231.205 131.452C230.802 131.392 230.413 131.237 230.062 130.995C229.711 130.753 229.406 130.431 229.163 130.046C228.921 129.662 228.747 129.223 228.651 128.758L230.328 123.373Z" fill="#EB9481"/>
<path d="M236.063 122.127C236.063 122.127 236.063 122.207 236.063 122.22C233.88 122.844 232.508 124.873 231.462 127.101C231.611 126.878 231.8 126.697 232.015 126.569C232.23 126.441 232.466 126.37 232.707 126.36C232.947 126.349 233.187 126.401 233.409 126.511C233.631 126.62 233.83 126.785 233.993 126.995C234.004 127.007 234.011 127.024 234.012 127.041C234.014 127.059 234.011 127.077 234.003 127.092C233.996 127.108 233.984 127.119 233.969 127.126C233.955 127.132 233.94 127.133 233.925 127.127C233.582 126.922 233.193 126.85 232.813 126.921C232.433 126.993 232.082 127.204 231.81 127.525C231.351 128.053 230.943 128.64 230.595 129.276C230.472 129.475 230.157 129.276 230.258 129.064C230.629 125.92 233.205 121.942 236.063 122.127Z" fill="#263238"/>
<path opacity="0.5" d="M78.1424 106.492C72.1463 123.733 55.6432 193.28 66.4316 240.322C75.8812 281.342 97.8291 302.8 107.785 309.75C122.409 319.962 138.013 326.447 137.383 330.333C136.753 334.219 121.386 325.811 120.688 327.309C119.991 328.808 154.111 367.521 214.779 375.425C308.545 387.64 363.611 347.892 371.711 346.182C379.811 344.471 341.123 399.576 312.718 412.493C306.182 415.451 329.975 407.865 346.129 396.459C352.193 392.175 335.487 449.919 279.678 464.203C268.946 466.948 292.131 466.789 300.4 465.635C308.668 464.481 276.517 491.789 192.922 483.937C127.877 477.77 67.2753 417.931 42.38 351.951C39.5789 344.524 33.8078 349.378 31.9629 344.126C28.0256 332.919 29.848 311.249 27.9243 306.991C26.0007 302.734 19.6896 306.991 17.7997 295.639C15.9098 284.286 16.9223 250.229 32.5029 195.614C34.3478 189.142 31.8054 191.331 28.4756 197.113C25.1457 202.895 21.2083 208.041 17.496 207.829C13.7836 207.617 15.7523 191.556 31.4567 161.994C58.3769 111.2 83.5871 90.9084 78.1424 106.492Z" fill="#08C3B8"/>
<path opacity="0.5" d="M142.277 337.11C142.434 331.699 160.163 334.365 158.555 341.619C156.946 348.873 142.063 344.457 142.277 337.11Z" fill="#08C3B8"/>
<path opacity="0.5" d="M307.791 463.832C308.916 468.898 324.373 465.37 323.147 458.527C321.921 451.684 306.486 457.731 307.791 463.832Z" fill="#08C3B8"/>
<path opacity="0.5" d="M13.8513 213.93C10.8926 213.492 8.86774 220.998 12.4226 222.391C15.9774 223.783 17.7211 214.526 13.8513 213.93Z" fill="#08C3B8"/>
<path opacity="0.5" d="M376.222 342.774C378.472 346.182 393.951 334.989 387.528 329.684C383.05 325.97 373.994 339.365 376.222 342.774Z" fill="#08C3B8"/>
<path d="M240.98 443.262L234.838 444.601L233.465 452.24L232.093 444.601L225.939 443.262L232.059 441.498L233.465 434.283L234.86 441.498L240.98 443.262Z" fill="#FEFEFE"/>
<path d="M93.6217 332.694L87.4795 334.034L86.107 341.673L84.7346 334.034L78.5811 332.694L84.7008 330.931L86.107 323.716L87.502 330.931L93.6217 332.694Z" fill="#FEFEFE"/>
<path d="M62.4396 131.465L56.2973 132.804L54.9249 140.444L53.5524 132.804L47.4102 131.465L53.5187 129.701L54.9249 122.486L56.3198 129.701L62.4396 131.465Z" fill="#FEFEFE"/>
<path d="M356.873 365.239L353.431 365.995L352.666 370.265L351.901 365.995L348.47 365.239L351.89 364.257L352.666 360.226L353.453 364.257L356.873 365.239Z" fill="#FEFEFE"/>
<path d="M167.711 387.626L164.28 388.381L163.515 392.639L162.75 388.381L159.319 387.626L162.728 386.644L163.515 382.612L164.303 386.644L167.711 387.626Z" fill="#FEFEFE"/>
<path d="M313.81 439.296L310.379 440.052L309.614 444.323L308.837 440.052L305.406 439.296L308.826 438.315L309.614 434.283L310.39 438.315L313.81 439.296Z" fill="#FEFEFE"/>
<path d="M203.699 470.171L200.268 470.914L199.492 475.184L198.727 470.914L195.296 470.171L198.716 469.176L199.492 465.145L200.279 469.176L203.699 470.171Z" fill="#FEFEFE"/>
<path d="M71.0783 365.239L67.6359 365.995L66.8709 370.265L66.1059 365.995L62.6748 365.239L66.0947 364.257L66.8709 360.226L67.6584 364.257L71.0783 365.239Z" fill="#FEFEFE"/>
<path d="M66.8703 245.6L63.4391 246.342L62.6742 250.613L61.9092 246.342L58.4668 245.6L61.8867 244.605L62.6742 240.573L63.4504 244.605L66.8703 245.6Z" fill="#FEFEFE"/>
<path d="M251.916 398.051C251.67 398.082 251.442 398.219 251.277 398.435C251.112 398.652 251.021 398.933 251.021 399.224C251.021 399.516 251.112 399.797 251.277 400.014C251.442 400.23 251.67 400.367 251.916 400.398C252.162 400.367 252.389 400.23 252.554 400.014C252.72 399.797 252.811 399.516 252.811 399.224C252.811 398.933 252.72 398.652 252.554 398.435C252.389 398.219 252.162 398.082 251.916 398.051Z" fill="#FEFEFE"/>
<path d="M40.9187 177.087C40.6729 177.118 40.4454 177.255 40.2802 177.471C40.1149 177.688 40.0234 177.969 40.0234 178.261C40.0234 178.552 40.1149 178.833 40.2802 179.05C40.4454 179.267 40.6729 179.403 40.9187 179.434C41.1645 179.403 41.3919 179.267 41.5572 179.05C41.7225 178.833 41.8139 178.552 41.8139 178.261C41.8139 177.969 41.7225 177.688 41.5572 177.471C41.3919 177.255 41.1645 177.118 40.9187 177.087Z" fill="#FEFEFE"/>
<path d="M314.507 401.207C314.261 401.238 314.033 401.375 313.868 401.592C313.703 401.808 313.611 402.089 313.611 402.381C313.611 402.672 313.703 402.953 313.868 403.17C314.033 403.387 314.261 403.524 314.507 403.554C314.752 403.524 314.98 403.387 315.145 403.17C315.31 402.953 315.402 402.672 315.402 402.381C315.402 402.089 315.31 401.808 315.145 401.592C314.98 401.375 314.752 401.238 314.507 401.207Z" fill="#FEFEFE"/>
<path d="M47.4089 341.62C47.1631 341.651 46.9357 341.788 46.7704 342.005C46.6051 342.221 46.5137 342.502 46.5137 342.794C46.5137 343.085 46.6051 343.366 46.7704 343.583C46.9357 343.8 47.1631 343.937 47.4089 343.968C47.6547 343.937 47.8821 343.8 48.0474 343.583C48.2127 343.366 48.3041 343.085 48.3041 342.794C48.3041 342.502 48.2127 342.221 48.0474 342.005C47.8821 341.788 47.6547 341.651 47.4089 341.62Z" fill="#FEFEFE"/>
<path d="M23.5708 269.777C23.3996 269.803 23.2422 269.901 23.1282 270.054C23.0141 270.206 22.9512 270.403 22.9512 270.606C22.9512 270.81 23.0141 271.006 23.1282 271.159C23.2422 271.311 23.3996 271.41 23.5708 271.435C23.7419 271.41 23.8993 271.311 24.0134 271.159C24.1274 271.006 24.1904 270.81 24.1904 270.606C24.1904 270.403 24.1274 270.206 24.0134 270.054C23.8993 269.901 23.7419 269.803 23.5708 269.777Z" fill="#FEFEFE"/>
<path d="M180.773 419.416C180.602 419.442 180.444 419.54 180.33 419.692C180.216 419.845 180.153 420.042 180.153 420.245C180.153 420.448 180.216 420.645 180.33 420.797C180.444 420.95 180.602 421.048 180.773 421.074C180.944 421.048 181.102 420.95 181.216 420.797C181.33 420.645 181.393 420.448 181.393 420.245C181.393 420.042 181.33 419.845 181.216 419.692C181.102 419.54 180.944 419.442 180.773 419.416Z" fill="#FEFEFE"/>
<path d="M111.306 416.433C111.135 416.458 110.978 416.556 110.864 416.709C110.749 416.862 110.687 417.058 110.687 417.262C110.687 417.465 110.749 417.661 110.864 417.814C110.978 417.967 111.135 418.065 111.306 418.09C111.477 418.065 111.635 417.967 111.749 417.814C111.863 417.661 111.926 417.465 111.926 417.262C111.926 417.058 111.863 416.862 111.749 416.709C111.635 416.556 111.477 416.458 111.306 416.433Z" fill="#FEFEFE"/>
<path d="M230.732 409.602C230.251 409.645 229.803 409.901 229.475 410.318C229.148 410.734 228.966 411.282 228.966 411.85C228.966 412.418 229.148 412.965 229.475 413.382C229.803 413.798 230.251 414.054 230.732 414.098C231.212 414.054 231.661 413.798 231.988 413.382C232.316 412.965 232.498 412.418 232.498 411.85C232.498 411.282 232.316 410.734 231.988 410.318C231.661 409.901 231.212 409.645 230.732 409.602Z" fill="#FEFEFE"/>
<path d="M120.329 408.807C119.849 408.85 119.4 409.106 119.073 409.523C118.745 409.939 118.563 410.487 118.563 411.055C118.563 411.623 118.745 412.17 119.073 412.587C119.4 413.003 119.849 413.259 120.329 413.303C120.81 413.259 121.258 413.003 121.586 412.587C121.913 412.17 122.095 411.623 122.095 411.055C122.095 410.487 121.913 409.939 121.586 409.523C121.258 409.106 120.81 408.85 120.329 408.807Z" fill="#FEFEFE"/>
<path d="M123.939 242.693C123.713 244.09 123.141 245.376 122.295 246.389C121.449 247.402 120.367 248.097 119.187 248.385C118.006 248.673 116.779 248.543 115.661 248.009C114.544 247.476 113.585 246.563 112.907 245.388C112.229 244.212 111.862 242.826 111.853 241.404C111.843 239.983 112.191 238.59 112.853 237.401C113.515 236.213 114.461 235.283 115.571 234.728C116.681 234.173 117.906 234.019 119.091 234.285C119.877 234.462 120.627 234.819 121.296 235.338C121.966 235.856 122.542 236.524 122.992 237.305C123.443 238.086 123.758 238.964 123.92 239.888C124.083 240.813 124.089 241.766 123.939 242.693Z" fill="#455A64"/>
<path d="M129.658 207.133L125.083 206.107L119.357 241.598L123.932 242.624L129.658 207.133Z" fill="#455A64"/>
<path d="M144.976 236.766C144.752 238.163 144.182 239.451 143.337 240.466C142.492 241.481 141.41 242.178 140.229 242.468C139.048 242.759 137.821 242.629 136.702 242.097C135.584 241.564 134.624 240.653 133.945 239.477C133.266 238.301 132.898 236.915 132.888 235.492C132.878 234.07 133.226 232.676 133.887 231.487C134.549 230.298 135.496 229.368 136.606 228.813C137.717 228.258 138.943 228.104 140.128 228.371C141.714 228.727 143.116 229.812 144.025 231.386C144.934 232.96 145.276 234.895 144.976 236.766Z" fill="#455A64"/>
<path d="M150.699 201.21L146.124 200.184L140.398 235.674L144.973 236.7L150.699 201.21Z" fill="#455A64"/>
<path d="M150.702 201.274L124.333 210.836L125.098 206.102L151.467 196.526L150.702 201.274Z" fill="#455A64"/>
<path d="M149.263 210.214L122.895 219.776L123.66 215.041L150.028 205.466L149.263 210.214Z" fill="#455A64"/>
<path d="M386.706 52.5247C386.476 53.9188 385.901 55.2013 385.053 56.2104C384.206 57.2195 383.123 57.9099 381.943 58.1945C380.763 58.479 379.537 58.345 378.422 57.8093C377.306 57.2736 376.35 56.3603 375.674 55.1846C374.998 54.0088 374.633 52.6234 374.624 51.2032C374.616 49.783 374.964 48.3916 375.626 47.2046C376.287 46.0177 377.232 45.0884 378.341 44.534C379.451 43.9797 380.674 43.8251 381.858 44.0898C382.648 44.2647 383.4 44.6221 384.072 45.1416C384.744 45.6611 385.322 46.3323 385.773 47.1164C386.223 47.9006 386.538 48.7822 386.698 49.7105C386.859 50.6387 386.861 51.5952 386.706 52.5247Z" fill="#C7C7C7"/>
<path d="M392.447 16.9723L387.872 15.9463L382.146 51.4365L386.721 52.4625L392.447 16.9723Z" fill="#C7C7C7"/>
<path d="M409.452 11.3307L404.877 10.3047L403.223 20.5583L407.798 21.5843L409.452 11.3307Z" fill="#C7C7C7"/>
<path d="M409.239 12.6717L387.111 20.6689L387.876 15.9343L410.004 7.92383L409.239 12.6717Z" fill="#C7C7C7"/>
<path d="M407.8 21.6112L385.672 29.6216L386.437 24.8737L408.565 16.8633L407.8 21.6112Z" fill="#C7C7C7"/>
<path d="M394.897 267.151C386.088 290.082 371.925 289.578 368.033 295.108C365.855 298.692 363.853 302.421 362.037 306.275L340.933 298.318C341.347 293.936 341.546 289.53 341.529 285.122C341.09 277.96 329.278 268.69 333.384 244.009C336.062 227.776 352.733 206.874 375.007 215.229C397.282 223.585 400.679 252.085 394.897 267.151Z" fill="#08C3B8"/>
<path d="M349.766 259.94L345.285 301.876L346.401 302.042L350.882 260.106L349.766 259.94Z" fill="white"/>
<path d="M372.756 268.377L355.748 305.585L356.738 306.214L373.746 269.006L372.756 268.377Z" fill="white"/>
<path d="M359.282 277.694C358.9 277.707 358.52 277.645 358.157 277.508C356.503 276.885 355.254 274.71 354.636 271.381C354.636 271.235 354.636 271.076 354.557 270.93C354.25 271.179 353.902 271.35 353.536 271.432C353.17 271.514 352.794 271.506 352.431 271.408C349.27 270.214 350.08 262.058 350.113 261.713L350.676 261.792C350.676 261.872 349.877 269.75 352.599 270.771C352.925 270.843 353.261 270.829 353.582 270.731C353.902 270.632 354.201 270.451 354.456 270.201C353.994 266.461 354.388 261.952 355.851 260.373C356.078 260.117 356.361 259.94 356.669 259.861C356.976 259.781 357.296 259.803 357.594 259.922C358.978 260.44 359.428 262.058 358.809 264.339C358.082 266.776 356.788 268.922 355.074 270.532C355.074 270.771 355.142 270.996 355.187 271.235C355.524 273.026 356.368 276.142 358.325 276.872C359.642 277.376 361.284 276.646 362.971 274.843C363.106 274.697 363.253 274.538 363.388 274.365C362.609 272.002 362.561 269.392 363.253 266.991C364.006 264.219 365.345 262.84 366.774 263.371C367.048 263.479 367.293 263.673 367.481 263.932C367.669 264.192 367.794 264.506 367.842 264.843C368.259 267.111 366.504 271.474 364.051 274.511C364.447 275.375 365.107 276.029 365.896 276.341C367.831 277.071 371.015 272.27 372.084 270.36L372.545 270.718C372.387 271.023 368.461 278.012 365.728 276.978C364.856 276.632 364.121 275.925 363.658 274.988L363.343 275.333C362.266 276.657 360.828 277.493 359.282 277.694ZM366.256 263.928C365.131 263.928 364.299 265.612 363.871 267.19C363.279 269.345 363.279 271.666 363.871 273.821C366.121 270.957 367.741 266.925 367.37 264.922C367.344 264.699 367.265 264.49 367.141 264.318C367.018 264.147 366.855 264.02 366.673 263.954C366.525 263.915 366.373 263.906 366.223 263.928H366.256ZM357.11 260.479C356.962 260.478 356.816 260.512 356.679 260.578C356.542 260.644 356.417 260.741 356.312 260.864C355.187 262.111 354.636 266.036 355.052 269.763C356.548 268.26 357.685 266.322 358.348 264.14C358.652 263.026 358.933 261.09 357.493 260.546C357.343 260.497 357.187 260.475 357.032 260.479H357.11Z" fill="white"/>
<path d="M364.77 306.172L338.729 296.368L337.104 302.369L363.145 312.173L364.77 306.172Z" fill="#A6A6A6"/>
<path d="M362.872 313.136L336.831 303.332L335.206 309.333L361.246 319.137L362.872 313.136Z" fill="#A6A6A6"/>
<path d="M360.982 320.11L334.941 310.307L333.316 316.308L359.357 326.111L360.982 320.11Z" fill="#A6A6A6"/>
<path d="M379.639 194.844L376.948 204.802L378.02 205.204L380.711 195.247L379.639 194.844Z" fill="#DBDBDB"/>
<path d="M354.894 193.486L353.795 193.769L355.682 203.98L356.781 203.697L354.894 193.486Z" fill="#DBDBDB"/>
<path d="M331.751 207.071L330.919 207.964L336.885 215.694L337.717 214.801L331.751 207.071Z" fill="#DBDBDB"/>
<path d="M317.511 232.606L317.169 233.869L325.614 237.048L325.956 235.785L317.511 232.606Z" fill="#DBDBDB"/>
<path d="M324.606 260.83L315.944 263.055L316.184 264.351L324.845 262.126L324.606 260.83Z" fill="#DBDBDB"/>
<path d="M392.995 286.713L392.163 287.605L398.128 295.336L398.96 294.444L392.995 286.713Z" fill="#DBDBDB"/>
<path d="M404.305 265.437L403.963 266.7L412.407 269.879L412.75 268.616L404.305 265.437Z" fill="#DBDBDB"/>
<path d="M413.7 238.043L405.038 240.268L405.278 241.563L413.939 239.339L413.7 238.043Z" fill="#DBDBDB"/>
<path d="M401.576 211.092L395.024 218.132L395.782 219.112L402.334 212.072L401.576 211.092Z" fill="#DBDBDB"/>
</svg>
