<svg width="194" height="70" viewBox="0 0 194 70" fill="none" xmlns="http://www.w3.org/2000/svg">
<path d="M21.3403 10.6406L21.3203 29.7806L37.9003 20.2206L21.3403 10.6406Z" fill="#FFC200"/>
<path d="M44.3093 0L44.2793 40.44L79.3193 20.25L44.3093 0ZM49.7793 9.5L68.3493 20.24L49.7693 30.95L49.7793 9.5Z" fill="#0B315E"/>
<path d="M176.87 49.8301L160.43 66.1901L143.98 49.8301L127.54 66.1901L111.1 49.8301L96.6 64.2601L82.09 49.8301L65.65 66.1901L49.2 49.8301L32.76 66.1901L16.32 49.8301L0 66.0701L1.82 67.8901L16.32 53.4601L32.76 69.8201L49.2 53.4601L65.65 69.8201L82.09 53.4601L96.6 67.9001L111.1 53.4601L127.54 69.8201L143.98 53.4601L160.43 69.8201L176.87 53.4601L191.38 67.8901L193.19 66.0701L176.87 49.8301Z" fill="#0B315E"/>
<path d="M176.87 20.5801L160.43 36.9401L143.98 20.5801L127.54 36.9401L111.1 20.5801L98.0598 33.5601L98.0498 37.2001L111.1 24.2101L127.54 40.5701L143.98 24.2101L160.43 40.5701L176.87 24.2101L191.38 38.6401L193.19 36.8101L176.87 20.5801Z" fill="#FF9D00"/>
</svg>
