<svg width="177" height="145" viewBox="0 0 177 145" fill="none" xmlns="http://www.w3.org/2000/svg">
<path d="M43.5 0L81.1721 65.25H5.8279L43.5 0Z" fill="#FF723A"/>
<path d="M161.489 78.5923C163.644 86.6381 163.492 94.964 161.044 102.957C158.595 110.95 153.913 118.407 147.341 124.779C140.769 131.15 132.475 136.274 123.07 139.774C113.665 143.273 103.387 145.058 92.9945 144.999C82.6018 144.939 72.3584 143.035 63.0184 139.428C53.6783 135.821 45.4795 130.602 39.0254 124.155C32.5713 117.709 28.0264 110.199 25.7251 102.178C23.4239 94.1578 23.425 85.831 25.7283 77.8108L55.963 83.2487C54.6872 87.6909 54.6866 92.3029 55.9612 96.7452C57.2358 101.188 59.7532 105.347 63.3279 108.918C66.9027 112.488 71.4438 115.379 76.617 117.377C81.7902 119.375 87.4638 120.429 93.22 120.462C98.9763 120.495 104.669 119.507 109.878 117.568C115.087 115.63 119.681 112.792 123.321 109.263C126.961 105.734 129.555 101.604 130.911 97.1766C132.267 92.7494 132.351 88.1379 131.157 83.6816L161.489 78.5923Z" fill="#036F89"/>
<path d="M145 0H49L87 67H177L145 0Z" fill="#FFAB37"/>
</svg>
